<mxfile host="65bd71144e">
    <diagram id="ce2j9sibC0-ZYwLiq6aL" name="第 1 页">
        <mxGraphModel dx="3463" dy="-13010" grid="0" gridSize="10" guides="1" tooltips="1" connect="1" arrows="1" fold="1" page="1" pageScale="1" pageWidth="4000" pageHeight="1350" math="0" shadow="0">
            <root>
                <mxCell id="0"/>
                <mxCell id="1" parent="0"/>
                <mxCell id="917" value="" style="shape=table;startSize=0;container=1;collapsible=0;childLayout=tableLayout;" parent="1" vertex="1">
                    <mxGeometry x="1811.5" y="15708" width="320" height="320" as="geometry"/>
                </mxCell>
                <mxCell id="918" value="" style="shape=tableRow;horizontal=0;startSize=0;swimlaneHead=0;swimlaneBody=0;strokeColor=inherit;top=0;left=0;bottom=0;right=0;collapsible=0;dropTarget=0;fillColor=none;points=[[0,0.5],[1,0.5]];portConstraint=eastwest;" parent="917" vertex="1">
                    <mxGeometry width="320" height="40" as="geometry"/>
                </mxCell>
                <mxCell id="919" value="" style="shape=partialRectangle;html=1;whiteSpace=wrap;connectable=0;strokeColor=inherit;overflow=hidden;fillColor=none;top=0;left=0;bottom=0;right=0;pointerEvents=1;" parent="918" vertex="1">
                    <mxGeometry width="40" height="40" as="geometry">
                        <mxRectangle width="40" height="40" as="alternateBounds"/>
                    </mxGeometry>
                </mxCell>
                <mxCell id="920" value="" style="shape=partialRectangle;html=1;whiteSpace=wrap;connectable=0;strokeColor=inherit;overflow=hidden;fillColor=none;top=0;left=0;bottom=0;right=0;pointerEvents=1;" parent="918" vertex="1">
                    <mxGeometry x="40" width="39" height="40" as="geometry">
                        <mxRectangle width="39" height="40" as="alternateBounds"/>
                    </mxGeometry>
                </mxCell>
                <mxCell id="921" value="" style="shape=partialRectangle;html=1;whiteSpace=wrap;connectable=0;strokeColor=inherit;overflow=hidden;fillColor=none;top=0;left=0;bottom=0;right=0;pointerEvents=1;" parent="918" vertex="1">
                    <mxGeometry x="79" width="41" height="40" as="geometry">
                        <mxRectangle width="41" height="40" as="alternateBounds"/>
                    </mxGeometry>
                </mxCell>
                <mxCell id="922" value="" style="shape=partialRectangle;html=1;whiteSpace=wrap;connectable=0;strokeColor=inherit;overflow=hidden;fillColor=none;top=0;left=0;bottom=0;right=0;pointerEvents=1;" parent="918" vertex="1">
                    <mxGeometry x="120" width="40" height="40" as="geometry">
                        <mxRectangle width="40" height="40" as="alternateBounds"/>
                    </mxGeometry>
                </mxCell>
                <mxCell id="923" value="" style="shape=partialRectangle;html=1;whiteSpace=wrap;connectable=0;strokeColor=inherit;overflow=hidden;fillColor=none;top=0;left=0;bottom=0;right=0;pointerEvents=1;" parent="918" vertex="1">
                    <mxGeometry x="160" width="39" height="40" as="geometry">
                        <mxRectangle width="39" height="40" as="alternateBounds"/>
                    </mxGeometry>
                </mxCell>
                <mxCell id="924" value="" style="shape=partialRectangle;html=1;whiteSpace=wrap;connectable=0;strokeColor=inherit;overflow=hidden;fillColor=none;top=0;left=0;bottom=0;right=0;pointerEvents=1;" parent="918" vertex="1">
                    <mxGeometry x="199" width="41" height="40" as="geometry">
                        <mxRectangle width="41" height="40" as="alternateBounds"/>
                    </mxGeometry>
                </mxCell>
                <mxCell id="925" value="" style="shape=partialRectangle;html=1;whiteSpace=wrap;connectable=0;strokeColor=inherit;overflow=hidden;fillColor=none;top=0;left=0;bottom=0;right=0;pointerEvents=1;" parent="918" vertex="1">
                    <mxGeometry x="240" width="41" height="40" as="geometry">
                        <mxRectangle width="41" height="40" as="alternateBounds"/>
                    </mxGeometry>
                </mxCell>
                <mxCell id="926" value="" style="shape=partialRectangle;html=1;whiteSpace=wrap;connectable=0;strokeColor=inherit;overflow=hidden;fillColor=none;top=0;left=0;bottom=0;right=0;pointerEvents=1;" parent="918" vertex="1">
                    <mxGeometry x="281" width="39" height="40" as="geometry">
                        <mxRectangle width="39" height="40" as="alternateBounds"/>
                    </mxGeometry>
                </mxCell>
                <mxCell id="931" value="" style="shape=tableRow;horizontal=0;startSize=0;swimlaneHead=0;swimlaneBody=0;strokeColor=inherit;top=0;left=0;bottom=0;right=0;collapsible=0;dropTarget=0;fillColor=none;points=[[0,0.5],[1,0.5]];portConstraint=eastwest;" parent="917" vertex="1">
                    <mxGeometry y="40" width="320" height="40" as="geometry"/>
                </mxCell>
                <mxCell id="932" value="" style="shape=partialRectangle;html=1;whiteSpace=wrap;connectable=0;strokeColor=inherit;overflow=hidden;fillColor=none;top=0;left=0;bottom=0;right=0;pointerEvents=1;" parent="931" vertex="1">
                    <mxGeometry width="40" height="40" as="geometry">
                        <mxRectangle width="40" height="40" as="alternateBounds"/>
                    </mxGeometry>
                </mxCell>
                <mxCell id="933" value="" style="shape=partialRectangle;html=1;whiteSpace=wrap;connectable=0;strokeColor=inherit;overflow=hidden;fillColor=none;top=0;left=0;bottom=0;right=0;pointerEvents=1;" parent="931" vertex="1">
                    <mxGeometry x="40" width="39" height="40" as="geometry">
                        <mxRectangle width="39" height="40" as="alternateBounds"/>
                    </mxGeometry>
                </mxCell>
                <mxCell id="934" value="" style="shape=partialRectangle;html=1;whiteSpace=wrap;connectable=0;strokeColor=inherit;overflow=hidden;fillColor=none;top=0;left=0;bottom=0;right=0;pointerEvents=1;" parent="931" vertex="1">
                    <mxGeometry x="79" width="41" height="40" as="geometry">
                        <mxRectangle width="41" height="40" as="alternateBounds"/>
                    </mxGeometry>
                </mxCell>
                <mxCell id="935" value="" style="shape=partialRectangle;html=1;whiteSpace=wrap;connectable=0;strokeColor=inherit;overflow=hidden;fillColor=none;top=0;left=0;bottom=0;right=0;pointerEvents=1;" parent="931" vertex="1">
                    <mxGeometry x="120" width="40" height="40" as="geometry">
                        <mxRectangle width="40" height="40" as="alternateBounds"/>
                    </mxGeometry>
                </mxCell>
                <mxCell id="936" value="" style="shape=partialRectangle;html=1;whiteSpace=wrap;connectable=0;strokeColor=inherit;overflow=hidden;fillColor=none;top=0;left=0;bottom=0;right=0;pointerEvents=1;" parent="931" vertex="1">
                    <mxGeometry x="160" width="39" height="40" as="geometry">
                        <mxRectangle width="39" height="40" as="alternateBounds"/>
                    </mxGeometry>
                </mxCell>
                <mxCell id="937" value="" style="shape=partialRectangle;html=1;whiteSpace=wrap;connectable=0;strokeColor=inherit;overflow=hidden;fillColor=none;top=0;left=0;bottom=0;right=0;pointerEvents=1;" parent="931" vertex="1">
                    <mxGeometry x="199" width="41" height="40" as="geometry">
                        <mxRectangle width="41" height="40" as="alternateBounds"/>
                    </mxGeometry>
                </mxCell>
                <mxCell id="938" value="" style="shape=partialRectangle;html=1;whiteSpace=wrap;connectable=0;strokeColor=inherit;overflow=hidden;fillColor=none;top=0;left=0;bottom=0;right=0;pointerEvents=1;" parent="931" vertex="1">
                    <mxGeometry x="240" width="41" height="40" as="geometry">
                        <mxRectangle width="41" height="40" as="alternateBounds"/>
                    </mxGeometry>
                </mxCell>
                <mxCell id="939" value="" style="shape=partialRectangle;html=1;whiteSpace=wrap;connectable=0;strokeColor=inherit;overflow=hidden;fillColor=none;top=0;left=0;bottom=0;right=0;pointerEvents=1;" parent="931" vertex="1">
                    <mxGeometry x="281" width="39" height="40" as="geometry">
                        <mxRectangle width="39" height="40" as="alternateBounds"/>
                    </mxGeometry>
                </mxCell>
                <mxCell id="944" value="" style="shape=tableRow;horizontal=0;startSize=0;swimlaneHead=0;swimlaneBody=0;strokeColor=inherit;top=0;left=0;bottom=0;right=0;collapsible=0;dropTarget=0;fillColor=none;points=[[0,0.5],[1,0.5]];portConstraint=eastwest;" parent="917" vertex="1">
                    <mxGeometry y="80" width="320" height="40" as="geometry"/>
                </mxCell>
                <mxCell id="945" value="" style="shape=partialRectangle;html=1;whiteSpace=wrap;connectable=0;strokeColor=inherit;overflow=hidden;fillColor=none;top=0;left=0;bottom=0;right=0;pointerEvents=1;" parent="944" vertex="1">
                    <mxGeometry width="40" height="40" as="geometry">
                        <mxRectangle width="40" height="40" as="alternateBounds"/>
                    </mxGeometry>
                </mxCell>
                <mxCell id="946" value="" style="shape=partialRectangle;html=1;whiteSpace=wrap;connectable=0;strokeColor=inherit;overflow=hidden;fillColor=none;top=0;left=0;bottom=0;right=0;pointerEvents=1;" parent="944" vertex="1">
                    <mxGeometry x="40" width="39" height="40" as="geometry">
                        <mxRectangle width="39" height="40" as="alternateBounds"/>
                    </mxGeometry>
                </mxCell>
                <mxCell id="947" value="" style="shape=partialRectangle;html=1;whiteSpace=wrap;connectable=0;strokeColor=inherit;overflow=hidden;fillColor=none;top=0;left=0;bottom=0;right=0;pointerEvents=1;" parent="944" vertex="1">
                    <mxGeometry x="79" width="41" height="40" as="geometry">
                        <mxRectangle width="41" height="40" as="alternateBounds"/>
                    </mxGeometry>
                </mxCell>
                <mxCell id="948" value="" style="shape=partialRectangle;html=1;whiteSpace=wrap;connectable=0;strokeColor=inherit;overflow=hidden;fillColor=none;top=0;left=0;bottom=0;right=0;pointerEvents=1;" parent="944" vertex="1">
                    <mxGeometry x="120" width="40" height="40" as="geometry">
                        <mxRectangle width="40" height="40" as="alternateBounds"/>
                    </mxGeometry>
                </mxCell>
                <mxCell id="949" value="" style="shape=partialRectangle;html=1;whiteSpace=wrap;connectable=0;strokeColor=inherit;overflow=hidden;fillColor=none;top=0;left=0;bottom=0;right=0;pointerEvents=1;" parent="944" vertex="1">
                    <mxGeometry x="160" width="39" height="40" as="geometry">
                        <mxRectangle width="39" height="40" as="alternateBounds"/>
                    </mxGeometry>
                </mxCell>
                <mxCell id="950" value="" style="shape=partialRectangle;html=1;whiteSpace=wrap;connectable=0;strokeColor=inherit;overflow=hidden;fillColor=none;top=0;left=0;bottom=0;right=0;pointerEvents=1;" parent="944" vertex="1">
                    <mxGeometry x="199" width="41" height="40" as="geometry">
                        <mxRectangle width="41" height="40" as="alternateBounds"/>
                    </mxGeometry>
                </mxCell>
                <mxCell id="951" value="" style="shape=partialRectangle;html=1;whiteSpace=wrap;connectable=0;strokeColor=inherit;overflow=hidden;fillColor=none;top=0;left=0;bottom=0;right=0;pointerEvents=1;" parent="944" vertex="1">
                    <mxGeometry x="240" width="41" height="40" as="geometry">
                        <mxRectangle width="41" height="40" as="alternateBounds"/>
                    </mxGeometry>
                </mxCell>
                <mxCell id="952" value="" style="shape=partialRectangle;html=1;whiteSpace=wrap;connectable=0;strokeColor=inherit;overflow=hidden;fillColor=none;top=0;left=0;bottom=0;right=0;pointerEvents=1;" parent="944" vertex="1">
                    <mxGeometry x="281" width="39" height="40" as="geometry">
                        <mxRectangle width="39" height="40" as="alternateBounds"/>
                    </mxGeometry>
                </mxCell>
                <mxCell id="957" value="" style="shape=tableRow;horizontal=0;startSize=0;swimlaneHead=0;swimlaneBody=0;strokeColor=inherit;top=0;left=0;bottom=0;right=0;collapsible=0;dropTarget=0;fillColor=none;points=[[0,0.5],[1,0.5]];portConstraint=eastwest;" parent="917" vertex="1">
                    <mxGeometry y="120" width="320" height="40" as="geometry"/>
                </mxCell>
                <mxCell id="958" value="" style="shape=partialRectangle;html=1;whiteSpace=wrap;connectable=0;strokeColor=inherit;overflow=hidden;fillColor=none;top=0;left=0;bottom=0;right=0;pointerEvents=1;" parent="957" vertex="1">
                    <mxGeometry width="40" height="40" as="geometry">
                        <mxRectangle width="40" height="40" as="alternateBounds"/>
                    </mxGeometry>
                </mxCell>
                <mxCell id="959" value="" style="shape=partialRectangle;html=1;whiteSpace=wrap;connectable=0;strokeColor=inherit;overflow=hidden;fillColor=none;top=0;left=0;bottom=0;right=0;pointerEvents=1;" parent="957" vertex="1">
                    <mxGeometry x="40" width="39" height="40" as="geometry">
                        <mxRectangle width="39" height="40" as="alternateBounds"/>
                    </mxGeometry>
                </mxCell>
                <mxCell id="960" value="" style="shape=partialRectangle;html=1;whiteSpace=wrap;connectable=0;strokeColor=inherit;overflow=hidden;fillColor=none;top=0;left=0;bottom=0;right=0;pointerEvents=1;" parent="957" vertex="1">
                    <mxGeometry x="79" width="41" height="40" as="geometry">
                        <mxRectangle width="41" height="40" as="alternateBounds"/>
                    </mxGeometry>
                </mxCell>
                <mxCell id="961" value="" style="shape=partialRectangle;html=1;whiteSpace=wrap;connectable=0;strokeColor=inherit;overflow=hidden;fillColor=none;top=0;left=0;bottom=0;right=0;pointerEvents=1;" parent="957" vertex="1">
                    <mxGeometry x="120" width="40" height="40" as="geometry">
                        <mxRectangle width="40" height="40" as="alternateBounds"/>
                    </mxGeometry>
                </mxCell>
                <mxCell id="962" value="" style="shape=partialRectangle;html=1;whiteSpace=wrap;connectable=0;strokeColor=inherit;overflow=hidden;fillColor=none;top=0;left=0;bottom=0;right=0;pointerEvents=1;" parent="957" vertex="1">
                    <mxGeometry x="160" width="39" height="40" as="geometry">
                        <mxRectangle width="39" height="40" as="alternateBounds"/>
                    </mxGeometry>
                </mxCell>
                <mxCell id="963" value="" style="shape=partialRectangle;html=1;whiteSpace=wrap;connectable=0;strokeColor=inherit;overflow=hidden;fillColor=none;top=0;left=0;bottom=0;right=0;pointerEvents=1;" parent="957" vertex="1">
                    <mxGeometry x="199" width="41" height="40" as="geometry">
                        <mxRectangle width="41" height="40" as="alternateBounds"/>
                    </mxGeometry>
                </mxCell>
                <mxCell id="964" value="" style="shape=partialRectangle;html=1;whiteSpace=wrap;connectable=0;strokeColor=inherit;overflow=hidden;fillColor=none;top=0;left=0;bottom=0;right=0;pointerEvents=1;" parent="957" vertex="1">
                    <mxGeometry x="240" width="41" height="40" as="geometry">
                        <mxRectangle width="41" height="40" as="alternateBounds"/>
                    </mxGeometry>
                </mxCell>
                <mxCell id="965" value="" style="shape=partialRectangle;html=1;whiteSpace=wrap;connectable=0;strokeColor=inherit;overflow=hidden;fillColor=none;top=0;left=0;bottom=0;right=0;pointerEvents=1;" parent="957" vertex="1">
                    <mxGeometry x="281" width="39" height="40" as="geometry">
                        <mxRectangle width="39" height="40" as="alternateBounds"/>
                    </mxGeometry>
                </mxCell>
                <mxCell id="970" value="" style="shape=tableRow;horizontal=0;startSize=0;swimlaneHead=0;swimlaneBody=0;strokeColor=inherit;top=0;left=0;bottom=0;right=0;collapsible=0;dropTarget=0;fillColor=none;points=[[0,0.5],[1,0.5]];portConstraint=eastwest;" parent="917" vertex="1">
                    <mxGeometry y="160" width="320" height="40" as="geometry"/>
                </mxCell>
                <mxCell id="971" value="" style="shape=partialRectangle;html=1;whiteSpace=wrap;connectable=0;strokeColor=inherit;overflow=hidden;fillColor=none;top=0;left=0;bottom=0;right=0;pointerEvents=1;" parent="970" vertex="1">
                    <mxGeometry width="40" height="40" as="geometry">
                        <mxRectangle width="40" height="40" as="alternateBounds"/>
                    </mxGeometry>
                </mxCell>
                <mxCell id="972" value="" style="shape=partialRectangle;html=1;whiteSpace=wrap;connectable=0;strokeColor=inherit;overflow=hidden;fillColor=none;top=0;left=0;bottom=0;right=0;pointerEvents=1;" parent="970" vertex="1">
                    <mxGeometry x="40" width="39" height="40" as="geometry">
                        <mxRectangle width="39" height="40" as="alternateBounds"/>
                    </mxGeometry>
                </mxCell>
                <mxCell id="973" value="" style="shape=partialRectangle;html=1;whiteSpace=wrap;connectable=0;strokeColor=inherit;overflow=hidden;fillColor=none;top=0;left=0;bottom=0;right=0;pointerEvents=1;" parent="970" vertex="1">
                    <mxGeometry x="79" width="41" height="40" as="geometry">
                        <mxRectangle width="41" height="40" as="alternateBounds"/>
                    </mxGeometry>
                </mxCell>
                <mxCell id="974" value="" style="shape=partialRectangle;html=1;whiteSpace=wrap;connectable=0;strokeColor=inherit;overflow=hidden;fillColor=none;top=0;left=0;bottom=0;right=0;pointerEvents=1;" parent="970" vertex="1">
                    <mxGeometry x="120" width="40" height="40" as="geometry">
                        <mxRectangle width="40" height="40" as="alternateBounds"/>
                    </mxGeometry>
                </mxCell>
                <mxCell id="975" value="" style="shape=partialRectangle;html=1;whiteSpace=wrap;connectable=0;strokeColor=inherit;overflow=hidden;fillColor=none;top=0;left=0;bottom=0;right=0;pointerEvents=1;" parent="970" vertex="1">
                    <mxGeometry x="160" width="39" height="40" as="geometry">
                        <mxRectangle width="39" height="40" as="alternateBounds"/>
                    </mxGeometry>
                </mxCell>
                <mxCell id="976" value="" style="shape=partialRectangle;html=1;whiteSpace=wrap;connectable=0;strokeColor=inherit;overflow=hidden;fillColor=none;top=0;left=0;bottom=0;right=0;pointerEvents=1;" parent="970" vertex="1">
                    <mxGeometry x="199" width="41" height="40" as="geometry">
                        <mxRectangle width="41" height="40" as="alternateBounds"/>
                    </mxGeometry>
                </mxCell>
                <mxCell id="977" value="" style="shape=partialRectangle;html=1;whiteSpace=wrap;connectable=0;strokeColor=inherit;overflow=hidden;fillColor=none;top=0;left=0;bottom=0;right=0;pointerEvents=1;" parent="970" vertex="1">
                    <mxGeometry x="240" width="41" height="40" as="geometry">
                        <mxRectangle width="41" height="40" as="alternateBounds"/>
                    </mxGeometry>
                </mxCell>
                <mxCell id="978" value="" style="shape=partialRectangle;html=1;whiteSpace=wrap;connectable=0;strokeColor=inherit;overflow=hidden;fillColor=none;top=0;left=0;bottom=0;right=0;pointerEvents=1;" parent="970" vertex="1">
                    <mxGeometry x="281" width="39" height="40" as="geometry">
                        <mxRectangle width="39" height="40" as="alternateBounds"/>
                    </mxGeometry>
                </mxCell>
                <mxCell id="983" value="" style="shape=tableRow;horizontal=0;startSize=0;swimlaneHead=0;swimlaneBody=0;strokeColor=inherit;top=0;left=0;bottom=0;right=0;collapsible=0;dropTarget=0;fillColor=none;points=[[0,0.5],[1,0.5]];portConstraint=eastwest;" parent="917" vertex="1">
                    <mxGeometry y="200" width="320" height="40" as="geometry"/>
                </mxCell>
                <mxCell id="984" value="" style="shape=partialRectangle;html=1;whiteSpace=wrap;connectable=0;strokeColor=inherit;overflow=hidden;fillColor=none;top=0;left=0;bottom=0;right=0;pointerEvents=1;" parent="983" vertex="1">
                    <mxGeometry width="40" height="40" as="geometry">
                        <mxRectangle width="40" height="40" as="alternateBounds"/>
                    </mxGeometry>
                </mxCell>
                <mxCell id="985" value="" style="shape=partialRectangle;html=1;whiteSpace=wrap;connectable=0;strokeColor=inherit;overflow=hidden;fillColor=none;top=0;left=0;bottom=0;right=0;pointerEvents=1;" parent="983" vertex="1">
                    <mxGeometry x="40" width="39" height="40" as="geometry">
                        <mxRectangle width="39" height="40" as="alternateBounds"/>
                    </mxGeometry>
                </mxCell>
                <mxCell id="986" value="" style="shape=partialRectangle;html=1;whiteSpace=wrap;connectable=0;strokeColor=inherit;overflow=hidden;fillColor=none;top=0;left=0;bottom=0;right=0;pointerEvents=1;" parent="983" vertex="1">
                    <mxGeometry x="79" width="41" height="40" as="geometry">
                        <mxRectangle width="41" height="40" as="alternateBounds"/>
                    </mxGeometry>
                </mxCell>
                <mxCell id="987" value="" style="shape=partialRectangle;html=1;whiteSpace=wrap;connectable=0;strokeColor=inherit;overflow=hidden;fillColor=none;top=0;left=0;bottom=0;right=0;pointerEvents=1;" parent="983" vertex="1">
                    <mxGeometry x="120" width="40" height="40" as="geometry">
                        <mxRectangle width="40" height="40" as="alternateBounds"/>
                    </mxGeometry>
                </mxCell>
                <mxCell id="988" value="" style="shape=partialRectangle;html=1;whiteSpace=wrap;connectable=0;strokeColor=inherit;overflow=hidden;fillColor=none;top=0;left=0;bottom=0;right=0;pointerEvents=1;" parent="983" vertex="1">
                    <mxGeometry x="160" width="39" height="40" as="geometry">
                        <mxRectangle width="39" height="40" as="alternateBounds"/>
                    </mxGeometry>
                </mxCell>
                <mxCell id="989" value="" style="shape=partialRectangle;html=1;whiteSpace=wrap;connectable=0;strokeColor=inherit;overflow=hidden;fillColor=none;top=0;left=0;bottom=0;right=0;pointerEvents=1;" parent="983" vertex="1">
                    <mxGeometry x="199" width="41" height="40" as="geometry">
                        <mxRectangle width="41" height="40" as="alternateBounds"/>
                    </mxGeometry>
                </mxCell>
                <mxCell id="990" value="" style="shape=partialRectangle;html=1;whiteSpace=wrap;connectable=0;strokeColor=inherit;overflow=hidden;fillColor=none;top=0;left=0;bottom=0;right=0;pointerEvents=1;" parent="983" vertex="1">
                    <mxGeometry x="240" width="41" height="40" as="geometry">
                        <mxRectangle width="41" height="40" as="alternateBounds"/>
                    </mxGeometry>
                </mxCell>
                <mxCell id="991" value="" style="shape=partialRectangle;html=1;whiteSpace=wrap;connectable=0;strokeColor=inherit;overflow=hidden;fillColor=none;top=0;left=0;bottom=0;right=0;pointerEvents=1;" parent="983" vertex="1">
                    <mxGeometry x="281" width="39" height="40" as="geometry">
                        <mxRectangle width="39" height="40" as="alternateBounds"/>
                    </mxGeometry>
                </mxCell>
                <mxCell id="996" value="" style="shape=tableRow;horizontal=0;startSize=0;swimlaneHead=0;swimlaneBody=0;strokeColor=inherit;top=0;left=0;bottom=0;right=0;collapsible=0;dropTarget=0;fillColor=none;points=[[0,0.5],[1,0.5]];portConstraint=eastwest;" parent="917" vertex="1">
                    <mxGeometry y="240" width="320" height="40" as="geometry"/>
                </mxCell>
                <mxCell id="997" value="" style="shape=partialRectangle;html=1;whiteSpace=wrap;connectable=0;strokeColor=inherit;overflow=hidden;fillColor=none;top=0;left=0;bottom=0;right=0;pointerEvents=1;" parent="996" vertex="1">
                    <mxGeometry width="40" height="40" as="geometry">
                        <mxRectangle width="40" height="40" as="alternateBounds"/>
                    </mxGeometry>
                </mxCell>
                <mxCell id="998" value="" style="shape=partialRectangle;html=1;whiteSpace=wrap;connectable=0;strokeColor=inherit;overflow=hidden;fillColor=none;top=0;left=0;bottom=0;right=0;pointerEvents=1;" parent="996" vertex="1">
                    <mxGeometry x="40" width="39" height="40" as="geometry">
                        <mxRectangle width="39" height="40" as="alternateBounds"/>
                    </mxGeometry>
                </mxCell>
                <mxCell id="999" value="" style="shape=partialRectangle;html=1;whiteSpace=wrap;connectable=0;strokeColor=inherit;overflow=hidden;fillColor=none;top=0;left=0;bottom=0;right=0;pointerEvents=1;" parent="996" vertex="1">
                    <mxGeometry x="79" width="41" height="40" as="geometry">
                        <mxRectangle width="41" height="40" as="alternateBounds"/>
                    </mxGeometry>
                </mxCell>
                <mxCell id="1000" value="" style="shape=partialRectangle;html=1;whiteSpace=wrap;connectable=0;strokeColor=inherit;overflow=hidden;fillColor=none;top=0;left=0;bottom=0;right=0;pointerEvents=1;" parent="996" vertex="1">
                    <mxGeometry x="120" width="40" height="40" as="geometry">
                        <mxRectangle width="40" height="40" as="alternateBounds"/>
                    </mxGeometry>
                </mxCell>
                <mxCell id="1001" value="" style="shape=partialRectangle;html=1;whiteSpace=wrap;connectable=0;strokeColor=inherit;overflow=hidden;fillColor=none;top=0;left=0;bottom=0;right=0;pointerEvents=1;" parent="996" vertex="1">
                    <mxGeometry x="160" width="39" height="40" as="geometry">
                        <mxRectangle width="39" height="40" as="alternateBounds"/>
                    </mxGeometry>
                </mxCell>
                <mxCell id="1002" value="" style="shape=partialRectangle;html=1;whiteSpace=wrap;connectable=0;strokeColor=inherit;overflow=hidden;fillColor=none;top=0;left=0;bottom=0;right=0;pointerEvents=1;" parent="996" vertex="1">
                    <mxGeometry x="199" width="41" height="40" as="geometry">
                        <mxRectangle width="41" height="40" as="alternateBounds"/>
                    </mxGeometry>
                </mxCell>
                <mxCell id="1003" value="" style="shape=partialRectangle;html=1;whiteSpace=wrap;connectable=0;strokeColor=inherit;overflow=hidden;fillColor=none;top=0;left=0;bottom=0;right=0;pointerEvents=1;" parent="996" vertex="1">
                    <mxGeometry x="240" width="41" height="40" as="geometry">
                        <mxRectangle width="41" height="40" as="alternateBounds"/>
                    </mxGeometry>
                </mxCell>
                <mxCell id="1004" value="" style="shape=partialRectangle;html=1;whiteSpace=wrap;connectable=0;strokeColor=inherit;overflow=hidden;fillColor=none;top=0;left=0;bottom=0;right=0;pointerEvents=1;" parent="996" vertex="1">
                    <mxGeometry x="281" width="39" height="40" as="geometry">
                        <mxRectangle width="39" height="40" as="alternateBounds"/>
                    </mxGeometry>
                </mxCell>
                <mxCell id="1009" value="" style="shape=tableRow;horizontal=0;startSize=0;swimlaneHead=0;swimlaneBody=0;strokeColor=inherit;top=0;left=0;bottom=0;right=0;collapsible=0;dropTarget=0;fillColor=none;points=[[0,0.5],[1,0.5]];portConstraint=eastwest;" parent="917" vertex="1">
                    <mxGeometry y="280" width="320" height="40" as="geometry"/>
                </mxCell>
                <mxCell id="1010" value="" style="shape=partialRectangle;html=1;whiteSpace=wrap;connectable=0;strokeColor=inherit;overflow=hidden;fillColor=none;top=0;left=0;bottom=0;right=0;pointerEvents=1;" parent="1009" vertex="1">
                    <mxGeometry width="40" height="40" as="geometry">
                        <mxRectangle width="40" height="40" as="alternateBounds"/>
                    </mxGeometry>
                </mxCell>
                <mxCell id="1011" value="" style="shape=partialRectangle;html=1;whiteSpace=wrap;connectable=0;strokeColor=inherit;overflow=hidden;fillColor=none;top=0;left=0;bottom=0;right=0;pointerEvents=1;" parent="1009" vertex="1">
                    <mxGeometry x="40" width="39" height="40" as="geometry">
                        <mxRectangle width="39" height="40" as="alternateBounds"/>
                    </mxGeometry>
                </mxCell>
                <mxCell id="1012" value="" style="shape=partialRectangle;html=1;whiteSpace=wrap;connectable=0;strokeColor=inherit;overflow=hidden;fillColor=none;top=0;left=0;bottom=0;right=0;pointerEvents=1;" parent="1009" vertex="1">
                    <mxGeometry x="79" width="41" height="40" as="geometry">
                        <mxRectangle width="41" height="40" as="alternateBounds"/>
                    </mxGeometry>
                </mxCell>
                <mxCell id="1013" value="" style="shape=partialRectangle;html=1;whiteSpace=wrap;connectable=0;strokeColor=inherit;overflow=hidden;fillColor=none;top=0;left=0;bottom=0;right=0;pointerEvents=1;" parent="1009" vertex="1">
                    <mxGeometry x="120" width="40" height="40" as="geometry">
                        <mxRectangle width="40" height="40" as="alternateBounds"/>
                    </mxGeometry>
                </mxCell>
                <mxCell id="1014" value="" style="shape=partialRectangle;html=1;whiteSpace=wrap;connectable=0;strokeColor=inherit;overflow=hidden;fillColor=none;top=0;left=0;bottom=0;right=0;pointerEvents=1;" parent="1009" vertex="1">
                    <mxGeometry x="160" width="39" height="40" as="geometry">
                        <mxRectangle width="39" height="40" as="alternateBounds"/>
                    </mxGeometry>
                </mxCell>
                <mxCell id="1015" value="" style="shape=partialRectangle;html=1;whiteSpace=wrap;connectable=0;strokeColor=inherit;overflow=hidden;fillColor=none;top=0;left=0;bottom=0;right=0;pointerEvents=1;" parent="1009" vertex="1">
                    <mxGeometry x="199" width="41" height="40" as="geometry">
                        <mxRectangle width="41" height="40" as="alternateBounds"/>
                    </mxGeometry>
                </mxCell>
                <mxCell id="1016" value="" style="shape=partialRectangle;html=1;whiteSpace=wrap;connectable=0;strokeColor=inherit;overflow=hidden;fillColor=none;top=0;left=0;bottom=0;right=0;pointerEvents=1;" parent="1009" vertex="1">
                    <mxGeometry x="240" width="41" height="40" as="geometry">
                        <mxRectangle width="41" height="40" as="alternateBounds"/>
                    </mxGeometry>
                </mxCell>
                <mxCell id="1017" value="" style="shape=partialRectangle;html=1;whiteSpace=wrap;connectable=0;strokeColor=inherit;overflow=hidden;fillColor=none;top=0;left=0;bottom=0;right=0;pointerEvents=1;" parent="1009" vertex="1">
                    <mxGeometry x="281" width="39" height="40" as="geometry">
                        <mxRectangle width="39" height="40" as="alternateBounds"/>
                    </mxGeometry>
                </mxCell>
                <mxCell id="1532" value="" style="shape=table;startSize=0;container=1;collapsible=0;childLayout=tableLayout;" parent="1" vertex="1">
                    <mxGeometry x="283" y="14980" width="960" height="960" as="geometry"/>
                </mxCell>
                <mxCell id="1546" value="" style="shape=tableRow;horizontal=0;startSize=0;swimlaneHead=0;swimlaneBody=0;strokeColor=inherit;top=0;left=0;bottom=0;right=0;collapsible=0;dropTarget=0;fillColor=none;points=[[0,0.5],[1,0.5]];portConstraint=eastwest;" parent="1532" vertex="1">
                    <mxGeometry width="960" height="118" as="geometry"/>
                </mxCell>
                <mxCell id="1547" value="" style="shape=partialRectangle;html=1;whiteSpace=wrap;connectable=0;strokeColor=inherit;overflow=hidden;fillColor=none;top=0;left=0;bottom=0;right=0;pointerEvents=1;" parent="1546" vertex="1">
                    <mxGeometry width="120" height="118" as="geometry">
                        <mxRectangle width="120" height="118" as="alternateBounds"/>
                    </mxGeometry>
                </mxCell>
                <mxCell id="1548" value="" style="shape=partialRectangle;html=1;whiteSpace=wrap;connectable=0;strokeColor=inherit;overflow=hidden;fillColor=none;top=0;left=0;bottom=0;right=0;pointerEvents=1;" parent="1546" vertex="1">
                    <mxGeometry x="120" width="117" height="118" as="geometry">
                        <mxRectangle width="117" height="118" as="alternateBounds"/>
                    </mxGeometry>
                </mxCell>
                <mxCell id="1549" value="" style="shape=partialRectangle;html=1;whiteSpace=wrap;connectable=0;strokeColor=inherit;overflow=hidden;fillColor=none;top=0;left=0;bottom=0;right=0;pointerEvents=1;" parent="1546" vertex="1">
                    <mxGeometry x="237" width="120" height="118" as="geometry">
                        <mxRectangle width="120" height="118" as="alternateBounds"/>
                    </mxGeometry>
                </mxCell>
                <mxCell id="1550" value="" style="shape=partialRectangle;html=1;whiteSpace=wrap;connectable=0;strokeColor=inherit;overflow=hidden;fillColor=none;top=0;left=0;bottom=0;right=0;pointerEvents=1;" parent="1546" vertex="1">
                    <mxGeometry x="357" width="118" height="118" as="geometry">
                        <mxRectangle width="118" height="118" as="alternateBounds"/>
                    </mxGeometry>
                </mxCell>
                <mxCell id="1551" value="" style="shape=partialRectangle;html=1;whiteSpace=wrap;connectable=0;strokeColor=inherit;overflow=hidden;fillColor=#666666;top=0;left=0;bottom=0;right=0;pointerEvents=1;" parent="1546" vertex="1">
                    <mxGeometry x="475" width="119" height="118" as="geometry">
                        <mxRectangle width="119" height="118" as="alternateBounds"/>
                    </mxGeometry>
                </mxCell>
                <mxCell id="1552" value="" style="shape=partialRectangle;html=1;whiteSpace=wrap;connectable=0;strokeColor=inherit;overflow=hidden;fillColor=none;top=0;left=0;bottom=0;right=0;pointerEvents=1;" parent="1546" vertex="1">
                    <mxGeometry x="594" width="122" height="118" as="geometry">
                        <mxRectangle width="122" height="118" as="alternateBounds"/>
                    </mxGeometry>
                </mxCell>
                <mxCell id="1553" value="" style="shape=partialRectangle;html=1;whiteSpace=wrap;connectable=0;strokeColor=inherit;overflow=hidden;fillColor=none;top=0;left=0;bottom=0;right=0;pointerEvents=1;" parent="1546" vertex="1">
                    <mxGeometry x="716" width="122" height="118" as="geometry">
                        <mxRectangle width="122" height="118" as="alternateBounds"/>
                    </mxGeometry>
                </mxCell>
                <mxCell id="2254" style="shape=partialRectangle;html=1;whiteSpace=wrap;connectable=0;strokeColor=inherit;overflow=hidden;fillColor=none;top=0;left=0;bottom=0;right=0;pointerEvents=1;" vertex="1" parent="1546">
                    <mxGeometry x="838" width="122" height="118" as="geometry">
                        <mxRectangle width="122" height="118" as="alternateBounds"/>
                    </mxGeometry>
                </mxCell>
                <mxCell id="1559" value="" style="shape=tableRow;horizontal=0;startSize=0;swimlaneHead=0;swimlaneBody=0;strokeColor=inherit;top=0;left=0;bottom=0;right=0;collapsible=0;dropTarget=0;fillColor=none;points=[[0,0.5],[1,0.5]];portConstraint=eastwest;" parent="1532" vertex="1">
                    <mxGeometry y="118" width="960" height="122" as="geometry"/>
                </mxCell>
                <mxCell id="1560" value="" style="shape=partialRectangle;html=1;whiteSpace=wrap;connectable=0;strokeColor=inherit;overflow=hidden;fillColor=#B3B3B3;top=0;left=0;bottom=0;right=0;pointerEvents=1;" parent="1559" vertex="1">
                    <mxGeometry width="120" height="122" as="geometry">
                        <mxRectangle width="120" height="122" as="alternateBounds"/>
                    </mxGeometry>
                </mxCell>
                <mxCell id="1561" value="" style="shape=partialRectangle;html=1;whiteSpace=wrap;connectable=0;strokeColor=inherit;overflow=hidden;fillColor=none;top=0;left=0;bottom=0;right=0;pointerEvents=1;" parent="1559" vertex="1">
                    <mxGeometry x="120" width="117" height="122" as="geometry">
                        <mxRectangle width="117" height="122" as="alternateBounds"/>
                    </mxGeometry>
                </mxCell>
                <mxCell id="1562" value="" style="shape=partialRectangle;html=1;whiteSpace=wrap;connectable=0;strokeColor=inherit;overflow=hidden;fillColor=none;top=0;left=0;bottom=0;right=0;pointerEvents=1;" parent="1559" vertex="1">
                    <mxGeometry x="237" width="120" height="122" as="geometry">
                        <mxRectangle width="120" height="122" as="alternateBounds"/>
                    </mxGeometry>
                </mxCell>
                <mxCell id="1563" value="" style="shape=partialRectangle;html=1;whiteSpace=wrap;connectable=0;strokeColor=inherit;overflow=hidden;fillColor=none;top=0;left=0;bottom=0;right=0;pointerEvents=1;" parent="1559" vertex="1">
                    <mxGeometry x="357" width="118" height="122" as="geometry">
                        <mxRectangle width="118" height="122" as="alternateBounds"/>
                    </mxGeometry>
                </mxCell>
                <mxCell id="1564" value="" style="shape=partialRectangle;html=1;whiteSpace=wrap;connectable=0;strokeColor=inherit;overflow=hidden;fillColor=none;top=0;left=0;bottom=0;right=0;pointerEvents=1;" parent="1559" vertex="1">
                    <mxGeometry x="475" width="119" height="122" as="geometry">
                        <mxRectangle width="119" height="122" as="alternateBounds"/>
                    </mxGeometry>
                </mxCell>
                <mxCell id="1565" value="" style="shape=partialRectangle;html=1;whiteSpace=wrap;connectable=0;strokeColor=inherit;overflow=hidden;fillColor=none;top=0;left=0;bottom=0;right=0;pointerEvents=1;" parent="1559" vertex="1">
                    <mxGeometry x="594" width="122" height="122" as="geometry">
                        <mxRectangle width="122" height="122" as="alternateBounds"/>
                    </mxGeometry>
                </mxCell>
                <mxCell id="1566" value="" style="shape=partialRectangle;html=1;whiteSpace=wrap;connectable=0;strokeColor=inherit;overflow=hidden;fillColor=#B3B3B3;top=0;left=0;bottom=0;right=0;pointerEvents=1;" parent="1559" vertex="1">
                    <mxGeometry x="716" width="122" height="122" as="geometry">
                        <mxRectangle width="122" height="122" as="alternateBounds"/>
                    </mxGeometry>
                </mxCell>
                <mxCell id="2255" style="shape=partialRectangle;html=1;whiteSpace=wrap;connectable=0;strokeColor=inherit;overflow=hidden;fillColor=none;top=0;left=0;bottom=0;right=0;pointerEvents=1;" vertex="1" parent="1559">
                    <mxGeometry x="838" width="122" height="122" as="geometry">
                        <mxRectangle width="122" height="122" as="alternateBounds"/>
                    </mxGeometry>
                </mxCell>
                <mxCell id="1572" value="" style="shape=tableRow;horizontal=0;startSize=0;swimlaneHead=0;swimlaneBody=0;strokeColor=inherit;top=0;left=0;bottom=0;right=0;collapsible=0;dropTarget=0;fillColor=none;points=[[0,0.5],[1,0.5]];portConstraint=eastwest;" parent="1532" vertex="1">
                    <mxGeometry y="240" width="960" height="118" as="geometry"/>
                </mxCell>
                <mxCell id="1573" value="" style="shape=partialRectangle;html=1;whiteSpace=wrap;connectable=0;strokeColor=inherit;overflow=hidden;fillColor=none;top=0;left=0;bottom=0;right=0;pointerEvents=1;" parent="1572" vertex="1">
                    <mxGeometry width="120" height="118" as="geometry">
                        <mxRectangle width="120" height="118" as="alternateBounds"/>
                    </mxGeometry>
                </mxCell>
                <mxCell id="1574" value="" style="shape=partialRectangle;html=1;whiteSpace=wrap;connectable=0;strokeColor=inherit;overflow=hidden;fillColor=none;top=0;left=0;bottom=0;right=0;pointerEvents=1;" parent="1572" vertex="1">
                    <mxGeometry x="120" width="117" height="118" as="geometry">
                        <mxRectangle width="117" height="118" as="alternateBounds"/>
                    </mxGeometry>
                </mxCell>
                <mxCell id="1575" value="" style="shape=partialRectangle;html=1;whiteSpace=wrap;connectable=0;strokeColor=inherit;overflow=hidden;fillColor=none;top=0;left=0;bottom=0;right=0;pointerEvents=1;" parent="1572" vertex="1">
                    <mxGeometry x="237" width="120" height="118" as="geometry">
                        <mxRectangle width="120" height="118" as="alternateBounds"/>
                    </mxGeometry>
                </mxCell>
                <mxCell id="1576" value="" style="shape=partialRectangle;html=1;whiteSpace=wrap;connectable=0;strokeColor=inherit;overflow=hidden;fillColor=#B3B3B3;top=0;left=0;bottom=0;right=0;pointerEvents=1;" parent="1572" vertex="1">
                    <mxGeometry x="357" width="118" height="118" as="geometry">
                        <mxRectangle width="118" height="118" as="alternateBounds"/>
                    </mxGeometry>
                </mxCell>
                <mxCell id="1577" value="" style="shape=partialRectangle;html=1;whiteSpace=wrap;connectable=0;strokeColor=inherit;overflow=hidden;fillColor=none;top=0;left=0;bottom=0;right=0;pointerEvents=1;" parent="1572" vertex="1">
                    <mxGeometry x="475" width="119" height="118" as="geometry">
                        <mxRectangle width="119" height="118" as="alternateBounds"/>
                    </mxGeometry>
                </mxCell>
                <mxCell id="1578" value="" style="shape=partialRectangle;html=1;whiteSpace=wrap;connectable=0;strokeColor=inherit;overflow=hidden;fillColor=none;top=0;left=0;bottom=0;right=0;pointerEvents=1;" parent="1572" vertex="1">
                    <mxGeometry x="594" width="122" height="118" as="geometry">
                        <mxRectangle width="122" height="118" as="alternateBounds"/>
                    </mxGeometry>
                </mxCell>
                <mxCell id="1579" value="" style="shape=partialRectangle;html=1;whiteSpace=wrap;connectable=0;strokeColor=inherit;overflow=hidden;fillColor=none;top=0;left=0;bottom=0;right=0;pointerEvents=1;" parent="1572" vertex="1">
                    <mxGeometry x="716" width="122" height="118" as="geometry">
                        <mxRectangle width="122" height="118" as="alternateBounds"/>
                    </mxGeometry>
                </mxCell>
                <mxCell id="2256" style="shape=partialRectangle;html=1;whiteSpace=wrap;connectable=0;strokeColor=inherit;overflow=hidden;fillColor=none;top=0;left=0;bottom=0;right=0;pointerEvents=1;" vertex="1" parent="1572">
                    <mxGeometry x="838" width="122" height="118" as="geometry">
                        <mxRectangle width="122" height="118" as="alternateBounds"/>
                    </mxGeometry>
                </mxCell>
                <mxCell id="1585" value="" style="shape=tableRow;horizontal=0;startSize=0;swimlaneHead=0;swimlaneBody=0;strokeColor=inherit;top=0;left=0;bottom=0;right=0;collapsible=0;dropTarget=0;fillColor=none;points=[[0,0.5],[1,0.5]];portConstraint=eastwest;" parent="1532" vertex="1">
                    <mxGeometry y="358" width="960" height="121" as="geometry"/>
                </mxCell>
                <mxCell id="1586" value="" style="shape=partialRectangle;html=1;whiteSpace=wrap;connectable=0;strokeColor=inherit;overflow=hidden;fillColor=none;top=0;left=0;bottom=0;right=0;pointerEvents=1;" parent="1585" vertex="1">
                    <mxGeometry width="120" height="121" as="geometry">
                        <mxRectangle width="120" height="121" as="alternateBounds"/>
                    </mxGeometry>
                </mxCell>
                <mxCell id="1587" value="" style="shape=partialRectangle;html=1;whiteSpace=wrap;connectable=0;strokeColor=inherit;overflow=hidden;fillColor=#B3B3B3;top=0;left=0;bottom=0;right=0;pointerEvents=1;" parent="1585" vertex="1">
                    <mxGeometry x="120" width="117" height="121" as="geometry">
                        <mxRectangle width="117" height="121" as="alternateBounds"/>
                    </mxGeometry>
                </mxCell>
                <mxCell id="1588" value="" style="shape=partialRectangle;html=1;whiteSpace=wrap;connectable=0;strokeColor=inherit;overflow=hidden;fillColor=none;top=0;left=0;bottom=0;right=0;pointerEvents=1;" parent="1585" vertex="1">
                    <mxGeometry x="237" width="120" height="121" as="geometry">
                        <mxRectangle width="120" height="121" as="alternateBounds"/>
                    </mxGeometry>
                </mxCell>
                <mxCell id="1589" value="" style="shape=partialRectangle;html=1;whiteSpace=wrap;connectable=0;strokeColor=inherit;overflow=hidden;fillColor=none;top=0;left=0;bottom=0;right=0;pointerEvents=1;" parent="1585" vertex="1">
                    <mxGeometry x="357" width="118" height="121" as="geometry">
                        <mxRectangle width="118" height="121" as="alternateBounds"/>
                    </mxGeometry>
                </mxCell>
                <mxCell id="1590" value="" style="shape=partialRectangle;html=1;whiteSpace=wrap;connectable=0;strokeColor=inherit;overflow=hidden;fillColor=none;top=0;left=0;bottom=0;right=0;pointerEvents=1;" parent="1585" vertex="1">
                    <mxGeometry x="475" width="119" height="121" as="geometry">
                        <mxRectangle width="119" height="121" as="alternateBounds"/>
                    </mxGeometry>
                </mxCell>
                <mxCell id="1591" value="" style="shape=partialRectangle;html=1;whiteSpace=wrap;connectable=0;strokeColor=inherit;overflow=hidden;fillColor=none;top=0;left=0;bottom=0;right=0;pointerEvents=1;" parent="1585" vertex="1">
                    <mxGeometry x="594" width="122" height="121" as="geometry">
                        <mxRectangle width="122" height="121" as="alternateBounds"/>
                    </mxGeometry>
                </mxCell>
                <mxCell id="1592" value="" style="shape=partialRectangle;html=1;whiteSpace=wrap;connectable=0;strokeColor=inherit;overflow=hidden;fillColor=none;top=0;left=0;bottom=0;right=0;pointerEvents=1;" parent="1585" vertex="1">
                    <mxGeometry x="716" width="122" height="121" as="geometry">
                        <mxRectangle width="122" height="121" as="alternateBounds"/>
                    </mxGeometry>
                </mxCell>
                <mxCell id="2257" style="shape=partialRectangle;html=1;whiteSpace=wrap;connectable=0;strokeColor=inherit;overflow=hidden;fillColor=none;top=0;left=0;bottom=0;right=0;pointerEvents=1;" vertex="1" parent="1585">
                    <mxGeometry x="838" width="122" height="121" as="geometry">
                        <mxRectangle width="122" height="121" as="alternateBounds"/>
                    </mxGeometry>
                </mxCell>
                <mxCell id="1805" value="" style="shape=tableRow;horizontal=0;startSize=0;swimlaneHead=0;swimlaneBody=0;strokeColor=inherit;top=0;left=0;bottom=0;right=0;collapsible=0;dropTarget=0;fillColor=none;points=[[0,0.5],[1,0.5]];portConstraint=eastwest;" parent="1532" vertex="1">
                    <mxGeometry y="479" width="960" height="121" as="geometry"/>
                </mxCell>
                <mxCell id="1806" value="" style="shape=partialRectangle;html=1;whiteSpace=wrap;connectable=0;strokeColor=inherit;overflow=hidden;fillColor=none;top=0;left=0;bottom=0;right=0;pointerEvents=1;" parent="1805" vertex="1">
                    <mxGeometry width="120" height="121" as="geometry">
                        <mxRectangle width="120" height="121" as="alternateBounds"/>
                    </mxGeometry>
                </mxCell>
                <mxCell id="1807" value="" style="shape=partialRectangle;html=1;whiteSpace=wrap;connectable=0;strokeColor=inherit;overflow=hidden;fillColor=none;top=0;left=0;bottom=0;right=0;pointerEvents=1;" parent="1805" vertex="1">
                    <mxGeometry x="120" width="117" height="121" as="geometry">
                        <mxRectangle width="117" height="121" as="alternateBounds"/>
                    </mxGeometry>
                </mxCell>
                <mxCell id="1808" value="" style="shape=partialRectangle;html=1;whiteSpace=wrap;connectable=0;strokeColor=inherit;overflow=hidden;fillColor=none;top=0;left=0;bottom=0;right=0;pointerEvents=1;" parent="1805" vertex="1">
                    <mxGeometry x="237" width="120" height="121" as="geometry">
                        <mxRectangle width="120" height="121" as="alternateBounds"/>
                    </mxGeometry>
                </mxCell>
                <mxCell id="1809" value="" style="shape=partialRectangle;html=1;whiteSpace=wrap;connectable=0;strokeColor=inherit;overflow=hidden;fillColor=#B3B3B3;top=0;left=0;bottom=0;right=0;pointerEvents=1;" parent="1805" vertex="1">
                    <mxGeometry x="357" width="118" height="121" as="geometry">
                        <mxRectangle width="118" height="121" as="alternateBounds"/>
                    </mxGeometry>
                </mxCell>
                <mxCell id="1810" value="" style="shape=partialRectangle;html=1;whiteSpace=wrap;connectable=0;strokeColor=inherit;overflow=hidden;fillColor=none;top=0;left=0;bottom=0;right=0;pointerEvents=1;" parent="1805" vertex="1">
                    <mxGeometry x="475" width="119" height="121" as="geometry">
                        <mxRectangle width="119" height="121" as="alternateBounds"/>
                    </mxGeometry>
                </mxCell>
                <mxCell id="1811" value="" style="shape=partialRectangle;html=1;whiteSpace=wrap;connectable=0;strokeColor=inherit;overflow=hidden;fillColor=none;top=0;left=0;bottom=0;right=0;pointerEvents=1;" parent="1805" vertex="1">
                    <mxGeometry x="594" width="122" height="121" as="geometry">
                        <mxRectangle width="122" height="121" as="alternateBounds"/>
                    </mxGeometry>
                </mxCell>
                <mxCell id="1812" value="" style="shape=partialRectangle;html=1;whiteSpace=wrap;connectable=0;strokeColor=inherit;overflow=hidden;fillColor=none;top=0;left=0;bottom=0;right=0;pointerEvents=1;" parent="1805" vertex="1">
                    <mxGeometry x="716" width="122" height="121" as="geometry">
                        <mxRectangle width="122" height="121" as="alternateBounds"/>
                    </mxGeometry>
                </mxCell>
                <mxCell id="2258" style="shape=partialRectangle;html=1;whiteSpace=wrap;connectable=0;strokeColor=inherit;overflow=hidden;fillColor=#B3B3B3;top=0;left=0;bottom=0;right=0;pointerEvents=1;" vertex="1" parent="1805">
                    <mxGeometry x="838" width="122" height="121" as="geometry">
                        <mxRectangle width="122" height="121" as="alternateBounds"/>
                    </mxGeometry>
                </mxCell>
                <mxCell id="1598" value="" style="shape=tableRow;horizontal=0;startSize=0;swimlaneHead=0;swimlaneBody=0;strokeColor=inherit;top=0;left=0;bottom=0;right=0;collapsible=0;dropTarget=0;fillColor=none;points=[[0,0.5],[1,0.5]];portConstraint=eastwest;" parent="1532" vertex="1">
                    <mxGeometry y="600" width="960" height="119" as="geometry"/>
                </mxCell>
                <mxCell id="1599" value="" style="shape=partialRectangle;html=1;whiteSpace=wrap;connectable=0;strokeColor=inherit;overflow=hidden;fillColor=none;top=0;left=0;bottom=0;right=0;pointerEvents=1;" parent="1598" vertex="1">
                    <mxGeometry width="120" height="119" as="geometry">
                        <mxRectangle width="120" height="119" as="alternateBounds"/>
                    </mxGeometry>
                </mxCell>
                <mxCell id="1600" value="" style="shape=partialRectangle;html=1;whiteSpace=wrap;connectable=0;strokeColor=inherit;overflow=hidden;fillColor=none;top=0;left=0;bottom=0;right=0;pointerEvents=1;" parent="1598" vertex="1">
                    <mxGeometry x="120" width="117" height="119" as="geometry">
                        <mxRectangle width="117" height="119" as="alternateBounds"/>
                    </mxGeometry>
                </mxCell>
                <mxCell id="1601" value="" style="shape=partialRectangle;html=1;whiteSpace=wrap;connectable=0;strokeColor=inherit;overflow=hidden;fillColor=none;top=0;left=0;bottom=0;right=0;pointerEvents=1;" parent="1598" vertex="1">
                    <mxGeometry x="237" width="120" height="119" as="geometry">
                        <mxRectangle width="120" height="119" as="alternateBounds"/>
                    </mxGeometry>
                </mxCell>
                <mxCell id="1602" value="" style="shape=partialRectangle;html=1;whiteSpace=wrap;connectable=0;strokeColor=inherit;overflow=hidden;fillColor=none;top=0;left=0;bottom=0;right=0;pointerEvents=1;" parent="1598" vertex="1">
                    <mxGeometry x="357" width="118" height="119" as="geometry">
                        <mxRectangle width="118" height="119" as="alternateBounds"/>
                    </mxGeometry>
                </mxCell>
                <mxCell id="1603" value="" style="shape=partialRectangle;html=1;whiteSpace=wrap;connectable=0;strokeColor=inherit;overflow=hidden;fillColor=none;top=0;left=0;bottom=0;right=0;pointerEvents=1;" parent="1598" vertex="1">
                    <mxGeometry x="475" width="119" height="119" as="geometry">
                        <mxRectangle width="119" height="119" as="alternateBounds"/>
                    </mxGeometry>
                </mxCell>
                <mxCell id="1604" value="" style="shape=partialRectangle;html=1;whiteSpace=wrap;connectable=0;strokeColor=inherit;overflow=hidden;fillColor=#808080;top=0;left=0;bottom=0;right=0;pointerEvents=1;" parent="1598" vertex="1">
                    <mxGeometry x="594" width="122" height="119" as="geometry">
                        <mxRectangle width="122" height="119" as="alternateBounds"/>
                    </mxGeometry>
                </mxCell>
                <mxCell id="1605" value="" style="shape=partialRectangle;html=1;whiteSpace=wrap;connectable=0;strokeColor=inherit;overflow=hidden;fillColor=none;top=0;left=0;bottom=0;right=0;pointerEvents=1;" parent="1598" vertex="1">
                    <mxGeometry x="716" width="122" height="119" as="geometry">
                        <mxRectangle width="122" height="119" as="alternateBounds"/>
                    </mxGeometry>
                </mxCell>
                <mxCell id="2259" style="shape=partialRectangle;html=1;whiteSpace=wrap;connectable=0;strokeColor=inherit;overflow=hidden;fillColor=none;top=0;left=0;bottom=0;right=0;pointerEvents=1;" vertex="1" parent="1598">
                    <mxGeometry x="838" width="122" height="119" as="geometry">
                        <mxRectangle width="122" height="119" as="alternateBounds"/>
                    </mxGeometry>
                </mxCell>
                <mxCell id="2018" value="" style="shape=tableRow;horizontal=0;startSize=0;swimlaneHead=0;swimlaneBody=0;strokeColor=inherit;top=0;left=0;bottom=0;right=0;collapsible=0;dropTarget=0;fillColor=none;points=[[0,0.5],[1,0.5]];portConstraint=eastwest;" parent="1532" vertex="1">
                    <mxGeometry y="719" width="960" height="120" as="geometry"/>
                </mxCell>
                <mxCell id="2019" value="" style="shape=partialRectangle;html=1;whiteSpace=wrap;connectable=0;strokeColor=inherit;overflow=hidden;fillColor=#B3B3B3;top=0;left=0;bottom=0;right=0;pointerEvents=1;" parent="2018" vertex="1">
                    <mxGeometry width="120" height="120" as="geometry">
                        <mxRectangle width="120" height="120" as="alternateBounds"/>
                    </mxGeometry>
                </mxCell>
                <mxCell id="2020" value="" style="shape=partialRectangle;html=1;whiteSpace=wrap;connectable=0;strokeColor=inherit;overflow=hidden;fillColor=none;top=0;left=0;bottom=0;right=0;pointerEvents=1;" parent="2018" vertex="1">
                    <mxGeometry x="120" width="117" height="120" as="geometry">
                        <mxRectangle width="117" height="120" as="alternateBounds"/>
                    </mxGeometry>
                </mxCell>
                <mxCell id="2021" value="" style="shape=partialRectangle;html=1;whiteSpace=wrap;connectable=0;strokeColor=inherit;overflow=hidden;fillColor=none;top=0;left=0;bottom=0;right=0;pointerEvents=1;" parent="2018" vertex="1">
                    <mxGeometry x="237" width="120" height="120" as="geometry">
                        <mxRectangle width="120" height="120" as="alternateBounds"/>
                    </mxGeometry>
                </mxCell>
                <mxCell id="2022" value="" style="shape=partialRectangle;html=1;whiteSpace=wrap;connectable=0;strokeColor=inherit;overflow=hidden;fillColor=none;top=0;left=0;bottom=0;right=0;pointerEvents=1;" parent="2018" vertex="1">
                    <mxGeometry x="357" width="118" height="120" as="geometry">
                        <mxRectangle width="118" height="120" as="alternateBounds"/>
                    </mxGeometry>
                </mxCell>
                <mxCell id="2023" value="" style="shape=partialRectangle;html=1;whiteSpace=wrap;connectable=0;strokeColor=inherit;overflow=hidden;fillColor=none;top=0;left=0;bottom=0;right=0;pointerEvents=1;" parent="2018" vertex="1">
                    <mxGeometry x="475" width="119" height="120" as="geometry">
                        <mxRectangle width="119" height="120" as="alternateBounds"/>
                    </mxGeometry>
                </mxCell>
                <mxCell id="2024" value="" style="shape=partialRectangle;html=1;whiteSpace=wrap;connectable=0;strokeColor=inherit;overflow=hidden;fillColor=none;top=0;left=0;bottom=0;right=0;pointerEvents=1;" parent="2018" vertex="1">
                    <mxGeometry x="594" width="122" height="120" as="geometry">
                        <mxRectangle width="122" height="120" as="alternateBounds"/>
                    </mxGeometry>
                </mxCell>
                <mxCell id="2025" value="" style="shape=partialRectangle;html=1;whiteSpace=wrap;connectable=0;strokeColor=inherit;overflow=hidden;fillColor=none;top=0;left=0;bottom=0;right=0;pointerEvents=1;" parent="2018" vertex="1">
                    <mxGeometry x="716" width="122" height="120" as="geometry">
                        <mxRectangle width="122" height="120" as="alternateBounds"/>
                    </mxGeometry>
                </mxCell>
                <mxCell id="2260" style="shape=partialRectangle;html=1;whiteSpace=wrap;connectable=0;strokeColor=inherit;overflow=hidden;fillColor=none;top=0;left=0;bottom=0;right=0;pointerEvents=1;" vertex="1" parent="2018">
                    <mxGeometry x="838" width="122" height="120" as="geometry">
                        <mxRectangle width="122" height="120" as="alternateBounds"/>
                    </mxGeometry>
                </mxCell>
                <mxCell id="1611" value="" style="shape=tableRow;horizontal=0;startSize=0;swimlaneHead=0;swimlaneBody=0;strokeColor=inherit;top=0;left=0;bottom=0;right=0;collapsible=0;dropTarget=0;fillColor=none;points=[[0,0.5],[1,0.5]];portConstraint=eastwest;" parent="1532" vertex="1">
                    <mxGeometry y="839" width="960" height="121" as="geometry"/>
                </mxCell>
                <mxCell id="1612" value="" style="shape=partialRectangle;html=1;whiteSpace=wrap;connectable=0;strokeColor=inherit;overflow=hidden;fillColor=none;top=0;left=0;bottom=0;right=0;pointerEvents=1;" parent="1611" vertex="1">
                    <mxGeometry width="120" height="121" as="geometry">
                        <mxRectangle width="120" height="121" as="alternateBounds"/>
                    </mxGeometry>
                </mxCell>
                <mxCell id="1613" value="" style="shape=partialRectangle;html=1;whiteSpace=wrap;connectable=0;strokeColor=inherit;overflow=hidden;fillColor=none;top=0;left=0;bottom=0;right=0;pointerEvents=1;" parent="1611" vertex="1">
                    <mxGeometry x="120" width="117" height="121" as="geometry">
                        <mxRectangle width="117" height="121" as="alternateBounds"/>
                    </mxGeometry>
                </mxCell>
                <mxCell id="1614" value="" style="shape=partialRectangle;html=1;whiteSpace=wrap;connectable=0;strokeColor=inherit;overflow=hidden;fillColor=none;top=0;left=0;bottom=0;right=0;pointerEvents=1;" parent="1611" vertex="1">
                    <mxGeometry x="237" width="120" height="121" as="geometry">
                        <mxRectangle width="120" height="121" as="alternateBounds"/>
                    </mxGeometry>
                </mxCell>
                <mxCell id="1615" value="" style="shape=partialRectangle;html=1;whiteSpace=wrap;connectable=0;strokeColor=inherit;overflow=hidden;fillColor=#E6E6E6;top=0;left=0;bottom=0;right=0;pointerEvents=1;" parent="1611" vertex="1">
                    <mxGeometry x="357" width="118" height="121" as="geometry">
                        <mxRectangle width="118" height="121" as="alternateBounds"/>
                    </mxGeometry>
                </mxCell>
                <mxCell id="1616" value="" style="shape=partialRectangle;html=1;whiteSpace=wrap;connectable=0;strokeColor=inherit;overflow=hidden;fillColor=none;top=0;left=0;bottom=0;right=0;pointerEvents=1;" parent="1611" vertex="1">
                    <mxGeometry x="475" width="119" height="121" as="geometry">
                        <mxRectangle width="119" height="121" as="alternateBounds"/>
                    </mxGeometry>
                </mxCell>
                <mxCell id="1617" value="" style="shape=partialRectangle;html=1;whiteSpace=wrap;connectable=0;strokeColor=inherit;overflow=hidden;fillColor=none;top=0;left=0;bottom=0;right=0;pointerEvents=1;" parent="1611" vertex="1">
                    <mxGeometry x="594" width="122" height="121" as="geometry">
                        <mxRectangle width="122" height="121" as="alternateBounds"/>
                    </mxGeometry>
                </mxCell>
                <mxCell id="1618" value="" style="shape=partialRectangle;html=1;whiteSpace=wrap;connectable=0;strokeColor=inherit;overflow=hidden;fillColor=none;top=0;left=0;bottom=0;right=0;pointerEvents=1;" parent="1611" vertex="1">
                    <mxGeometry x="716" width="122" height="121" as="geometry">
                        <mxRectangle width="122" height="121" as="alternateBounds"/>
                    </mxGeometry>
                </mxCell>
                <mxCell id="2261" style="shape=partialRectangle;html=1;whiteSpace=wrap;connectable=0;strokeColor=inherit;overflow=hidden;fillColor=#4D4D4D;top=0;left=0;bottom=0;right=0;pointerEvents=1;" vertex="1" parent="1611">
                    <mxGeometry x="838" width="122" height="121" as="geometry">
                        <mxRectangle width="122" height="121" as="alternateBounds"/>
                    </mxGeometry>
                </mxCell>
                <mxCell id="1844" value="" style="rounded=0;whiteSpace=wrap;html=1;fillColor=none;strokeWidth=5;strokeColor=#3333FF;movable=1;resizable=1;rotatable=1;deletable=1;editable=1;connectable=1;" parent="1" vertex="1">
                    <mxGeometry x="37" y="16052" width="1228" height="97" as="geometry"/>
                </mxCell>
                <mxCell id="2517" style="edgeStyle=none;html=1;fontColor=#FF3333;" edge="1" parent="1">
                    <mxGeometry relative="1" as="geometry">
                        <mxPoint x="2209.923114483173" y="15378.230834960938" as="targetPoint"/>
                        <mxPoint x="2638" y="15252" as="sourcePoint"/>
                    </mxGeometry>
                </mxCell>
                <mxCell id="2518" style="edgeStyle=none;html=1;fontColor=#FF3333;" edge="1" parent="1">
                    <mxGeometry relative="1" as="geometry">
                        <mxPoint x="2646.84619140625" y="15379.461585411658" as="targetPoint"/>
                        <mxPoint x="2820" y="15254" as="sourcePoint"/>
                    </mxGeometry>
                </mxCell>
                <mxCell id="1845" value="PE 1" style="rounded=1;whiteSpace=wrap;html=1;fontSize=35;opacity=50;fillColor=#dae8fc;strokeColor=#6c8ebf;" parent="1" vertex="1">
                    <mxGeometry x="2631.12" y="15148" width="222" height="97" as="geometry"/>
                </mxCell>
                <mxCell id="1855" value="PE 4" style="rounded=1;whiteSpace=wrap;html=1;fontSize=35;opacity=50;fillColor=#d5e8d4;strokeColor=#82b366;" parent="1" vertex="1">
                    <mxGeometry x="2354" y="15151" width="157.12" height="94" as="geometry"/>
                </mxCell>
                <mxCell id="1856" value="" style="rounded=0;whiteSpace=wrap;html=1;fillColor=none;strokeWidth=5;strokeColor=#3333FF;movable=1;resizable=1;rotatable=1;deletable=1;editable=1;connectable=1;" parent="1" vertex="1">
                    <mxGeometry x="1525" y="15031" width="180" height="180" as="geometry"/>
                </mxCell>
                <mxCell id="1857" value="&lt;b style=&quot;border-color: var(--border-color); color: rgb(51, 51, 255); font-family: Helvetica; font-size: 30px; font-variant-ligatures: normal; font-variant-caps: normal; letter-spacing: normal; orphans: 2; text-indent: 0px; text-transform: none; widows: 2; word-spacing: 0px; -webkit-text-stroke-width: 0px; background-color: rgb(251, 251, 251); text-decoration-thickness: initial; text-decoration-style: initial; text-decoration-color: initial;&quot;&gt;&lt;i style=&quot;font-style: normal; border-color: var(--border-color);&quot;&gt;N&lt;/i&gt;&lt;span style=&quot;font-style: normal;&quot;&gt;&amp;nbsp;&lt;br&gt;&lt;/span&gt;Column Block&lt;/b&gt;" style="text;whiteSpace=wrap;html=1;fontSize=35;align=right;" parent="1" vertex="1">
                    <mxGeometry x="1290" y="15070" width="213" height="106" as="geometry"/>
                </mxCell>
                <mxCell id="1859" value="&lt;b style=&quot;border-color: var(--border-color); color: rgb(255, 0, 0); font-family: Helvetica; font-style: normal; font-variant-ligatures: normal; font-variant-caps: normal; letter-spacing: normal; orphans: 2; text-indent: 0px; text-transform: none; widows: 2; word-spacing: 0px; -webkit-text-stroke-width: 0px; background-color: rgb(251, 251, 251); text-decoration-thickness: initial; text-decoration-style: initial; text-decoration-color: initial;&quot;&gt;&lt;font style=&quot;font-size: 30px;&quot;&gt;8 Tiles&lt;/font&gt;&lt;/b&gt;" style="text;whiteSpace=wrap;html=1;fontSize=35;align=right;" parent="1" vertex="1">
                    <mxGeometry x="1430" y="15397" width="121" height="56" as="geometry"/>
                </mxCell>
                <mxCell id="2397" style="edgeStyle=none;html=1;fontSize=30;fontColor=#3333FF;" edge="1" parent="1">
                    <mxGeometry relative="1" as="geometry">
                        <mxPoint x="1806.5586368336399" y="15722.235304888556" as="targetPoint"/>
                        <mxPoint x="1685.5" y="15702" as="sourcePoint"/>
                    </mxGeometry>
                </mxCell>
                <mxCell id="2398" style="edgeStyle=none;html=1;fontSize=30;fontColor=#3333FF;" edge="1" parent="1">
                    <mxGeometry relative="1" as="geometry">
                        <mxPoint x="1808.8331909179688" y="15983.666595458984" as="targetPoint"/>
                        <mxPoint x="1684.5" y="15797" as="sourcePoint"/>
                    </mxGeometry>
                </mxCell>
                <mxCell id="2401" style="edgeStyle=none;html=1;fontSize=30;fontColor=#3333FF;" edge="1" parent="1" source="1861" target="2273">
                    <mxGeometry relative="1" as="geometry">
                        <mxPoint x="1318.5" y="15348" as="targetPoint"/>
                    </mxGeometry>
                </mxCell>
                <mxCell id="1861" value="" style="rounded=0;whiteSpace=wrap;html=1;strokeWidth=1;strokeColor=#666666;fillColor=#B3B3B3;" parent="1" vertex="1">
                    <mxGeometry x="1572" y="15708" width="100" height="100" as="geometry"/>
                </mxCell>
                <mxCell id="1862" value="&lt;b style=&quot;border-color: var(--border-color); color: rgb(0, 0, 0); font-style: normal; font-variant-ligatures: normal; font-variant-caps: normal; letter-spacing: normal; orphans: 2; text-indent: 0px; text-transform: none; widows: 2; word-spacing: 0px; -webkit-text-stroke-width: 0px; background-color: rgb(251, 251, 251); text-decoration-thickness: initial; text-decoration-style: initial; text-decoration-color: initial; font-family: Helvetica;&quot;&gt;&lt;font style=&quot;font-size: 30px;&quot;&gt;64 x 64 sub matrix&lt;/font&gt;&lt;/b&gt;" style="text;whiteSpace=wrap;html=1;fontSize=35;align=right;" parent="1" vertex="1">
                    <mxGeometry x="1772.5" y="15642" width="332" height="59" as="geometry"/>
                </mxCell>
                <mxCell id="1866" value="" style="shape=table;startSize=0;container=1;collapsible=0;childLayout=tableLayout;strokeColor=none;fontSize=16;" parent="1" vertex="1">
                    <mxGeometry x="1763.5" y="15691" width="40" height="360" as="geometry"/>
                </mxCell>
                <mxCell id="1867" value="" style="shape=tableRow;horizontal=0;startSize=0;swimlaneHead=0;swimlaneBody=0;strokeColor=inherit;top=0;left=0;bottom=0;right=0;collapsible=0;dropTarget=0;fillColor=none;points=[[0,0.5],[1,0.5]];portConstraint=eastwest;" parent="1866" vertex="1">
                    <mxGeometry width="40" height="40" as="geometry"/>
                </mxCell>
                <mxCell id="1868" value="&lt;font style=&quot;font-size: 16px;&quot;&gt;0&lt;/font&gt;" style="shape=partialRectangle;html=1;whiteSpace=wrap;connectable=0;strokeColor=inherit;overflow=hidden;fillColor=none;top=0;left=0;bottom=0;right=0;pointerEvents=1;" parent="1867" vertex="1">
                    <mxGeometry width="40" height="40" as="geometry">
                        <mxRectangle width="40" height="40" as="alternateBounds"/>
                    </mxGeometry>
                </mxCell>
                <mxCell id="1876" value="" style="shape=tableRow;horizontal=0;startSize=0;swimlaneHead=0;swimlaneBody=0;strokeColor=inherit;top=0;left=0;bottom=0;right=0;collapsible=0;dropTarget=0;fillColor=none;points=[[0,0.5],[1,0.5]];portConstraint=eastwest;" parent="1866" vertex="1">
                    <mxGeometry y="40" width="40" height="40" as="geometry"/>
                </mxCell>
                <mxCell id="1877" value="&lt;font style=&quot;font-size: 16px;&quot;&gt;8&lt;/font&gt;" style="shape=partialRectangle;html=1;whiteSpace=wrap;connectable=0;strokeColor=inherit;overflow=hidden;fillColor=none;top=0;left=0;bottom=0;right=0;pointerEvents=1;" parent="1876" vertex="1">
                    <mxGeometry width="40" height="40" as="geometry">
                        <mxRectangle width="40" height="40" as="alternateBounds"/>
                    </mxGeometry>
                </mxCell>
                <mxCell id="1885" value="" style="shape=tableRow;horizontal=0;startSize=0;swimlaneHead=0;swimlaneBody=0;strokeColor=inherit;top=0;left=0;bottom=0;right=0;collapsible=0;dropTarget=0;fillColor=none;points=[[0,0.5],[1,0.5]];portConstraint=eastwest;" parent="1866" vertex="1">
                    <mxGeometry y="80" width="40" height="40" as="geometry"/>
                </mxCell>
                <mxCell id="1886" value="&lt;font style=&quot;font-size: 16px;&quot;&gt;16&lt;/font&gt;" style="shape=partialRectangle;html=1;whiteSpace=wrap;connectable=0;strokeColor=inherit;overflow=hidden;fillColor=none;top=0;left=0;bottom=0;right=0;pointerEvents=1;" parent="1885" vertex="1">
                    <mxGeometry width="40" height="40" as="geometry">
                        <mxRectangle width="40" height="40" as="alternateBounds"/>
                    </mxGeometry>
                </mxCell>
                <mxCell id="1894" value="" style="shape=tableRow;horizontal=0;startSize=0;swimlaneHead=0;swimlaneBody=0;strokeColor=inherit;top=0;left=0;bottom=0;right=0;collapsible=0;dropTarget=0;fillColor=none;points=[[0,0.5],[1,0.5]];portConstraint=eastwest;" parent="1866" vertex="1">
                    <mxGeometry y="120" width="40" height="40" as="geometry"/>
                </mxCell>
                <mxCell id="1895" value="&lt;font style=&quot;font-size: 16px;&quot;&gt;24&lt;/font&gt;" style="shape=partialRectangle;html=1;whiteSpace=wrap;connectable=0;strokeColor=inherit;overflow=hidden;fillColor=none;top=0;left=0;bottom=0;right=0;pointerEvents=1;" parent="1894" vertex="1">
                    <mxGeometry width="40" height="40" as="geometry">
                        <mxRectangle width="40" height="40" as="alternateBounds"/>
                    </mxGeometry>
                </mxCell>
                <mxCell id="1903" value="" style="shape=tableRow;horizontal=0;startSize=0;swimlaneHead=0;swimlaneBody=0;strokeColor=inherit;top=0;left=0;bottom=0;right=0;collapsible=0;dropTarget=0;fillColor=none;points=[[0,0.5],[1,0.5]];portConstraint=eastwest;" parent="1866" vertex="1">
                    <mxGeometry y="160" width="40" height="40" as="geometry"/>
                </mxCell>
                <mxCell id="1904" value="&lt;font style=&quot;font-size: 16px;&quot;&gt;32&lt;/font&gt;" style="shape=partialRectangle;html=1;whiteSpace=wrap;connectable=0;strokeColor=inherit;overflow=hidden;fillColor=none;top=0;left=0;bottom=0;right=0;pointerEvents=1;" parent="1903" vertex="1">
                    <mxGeometry width="40" height="40" as="geometry">
                        <mxRectangle width="40" height="40" as="alternateBounds"/>
                    </mxGeometry>
                </mxCell>
                <mxCell id="1912" value="" style="shape=tableRow;horizontal=0;startSize=0;swimlaneHead=0;swimlaneBody=0;strokeColor=inherit;top=0;left=0;bottom=0;right=0;collapsible=0;dropTarget=0;fillColor=none;points=[[0,0.5],[1,0.5]];portConstraint=eastwest;" parent="1866" vertex="1">
                    <mxGeometry y="200" width="40" height="40" as="geometry"/>
                </mxCell>
                <mxCell id="1913" value="&lt;font style=&quot;font-size: 16px;&quot;&gt;40&lt;/font&gt;" style="shape=partialRectangle;html=1;whiteSpace=wrap;connectable=0;strokeColor=inherit;overflow=hidden;fillColor=none;top=0;left=0;bottom=0;right=0;pointerEvents=1;" parent="1912" vertex="1">
                    <mxGeometry width="40" height="40" as="geometry">
                        <mxRectangle width="40" height="40" as="alternateBounds"/>
                    </mxGeometry>
                </mxCell>
                <mxCell id="1921" value="" style="shape=tableRow;horizontal=0;startSize=0;swimlaneHead=0;swimlaneBody=0;strokeColor=inherit;top=0;left=0;bottom=0;right=0;collapsible=0;dropTarget=0;fillColor=none;points=[[0,0.5],[1,0.5]];portConstraint=eastwest;" parent="1866" vertex="1">
                    <mxGeometry y="240" width="40" height="40" as="geometry"/>
                </mxCell>
                <mxCell id="1922" value="&lt;font style=&quot;font-size: 16px;&quot;&gt;48&lt;/font&gt;" style="shape=partialRectangle;html=1;whiteSpace=wrap;connectable=0;strokeColor=inherit;overflow=hidden;fillColor=none;top=0;left=0;bottom=0;right=0;pointerEvents=1;" parent="1921" vertex="1">
                    <mxGeometry width="40" height="40" as="geometry">
                        <mxRectangle width="40" height="40" as="alternateBounds"/>
                    </mxGeometry>
                </mxCell>
                <mxCell id="1930" value="" style="shape=tableRow;horizontal=0;startSize=0;swimlaneHead=0;swimlaneBody=0;strokeColor=inherit;top=0;left=0;bottom=0;right=0;collapsible=0;dropTarget=0;fillColor=none;points=[[0,0.5],[1,0.5]];portConstraint=eastwest;" parent="1866" vertex="1">
                    <mxGeometry y="280" width="40" height="40" as="geometry"/>
                </mxCell>
                <mxCell id="1931" value="&lt;font style=&quot;font-size: 16px;&quot;&gt;56&lt;/font&gt;" style="shape=partialRectangle;html=1;whiteSpace=wrap;connectable=0;strokeColor=inherit;overflow=hidden;fillColor=none;top=0;left=0;bottom=0;right=0;pointerEvents=1;" parent="1930" vertex="1">
                    <mxGeometry width="40" height="40" as="geometry">
                        <mxRectangle width="40" height="40" as="alternateBounds"/>
                    </mxGeometry>
                </mxCell>
                <mxCell id="2012" style="shape=tableRow;horizontal=0;startSize=0;swimlaneHead=0;swimlaneBody=0;strokeColor=inherit;top=0;left=0;bottom=0;right=0;collapsible=0;dropTarget=0;fillColor=none;points=[[0,0.5],[1,0.5]];portConstraint=eastwest;" parent="1866" vertex="1">
                    <mxGeometry y="320" width="40" height="40" as="geometry"/>
                </mxCell>
                <mxCell id="2013" value="&lt;font style=&quot;font-size: 16px;&quot;&gt;64&lt;/font&gt;" style="shape=partialRectangle;html=1;whiteSpace=wrap;connectable=0;strokeColor=inherit;overflow=hidden;fillColor=none;top=0;left=0;bottom=0;right=0;pointerEvents=1;" parent="2012" vertex="1">
                    <mxGeometry width="40" height="40" as="geometry">
                        <mxRectangle width="40" height="40" as="alternateBounds"/>
                    </mxGeometry>
                </mxCell>
                <mxCell id="1939" value="" style="shape=table;startSize=0;container=1;collapsible=0;childLayout=tableLayout;strokeColor=none;" parent="1" vertex="1">
                    <mxGeometry x="1790" y="16031" width="359" height="40" as="geometry"/>
                </mxCell>
                <mxCell id="1940" value="" style="shape=tableRow;horizontal=0;startSize=0;swimlaneHead=0;swimlaneBody=0;strokeColor=inherit;top=0;left=0;bottom=0;right=0;collapsible=0;dropTarget=0;fillColor=none;points=[[0,0.5],[1,0.5]];portConstraint=eastwest;" parent="1939" vertex="1">
                    <mxGeometry width="359" height="40" as="geometry"/>
                </mxCell>
                <mxCell id="1941" value="&lt;font style=&quot;font-size: 16px;&quot;&gt;0&lt;/font&gt;" style="shape=partialRectangle;html=1;whiteSpace=wrap;connectable=0;strokeColor=inherit;overflow=hidden;fillColor=none;top=0;left=0;bottom=0;right=0;pointerEvents=1;" parent="1940" vertex="1">
                    <mxGeometry width="40" height="40" as="geometry">
                        <mxRectangle width="40" height="40" as="alternateBounds"/>
                    </mxGeometry>
                </mxCell>
                <mxCell id="1942" value="&lt;font style=&quot;font-size: 16px;&quot;&gt;8&lt;/font&gt;" style="shape=partialRectangle;html=1;whiteSpace=wrap;connectable=0;strokeColor=inherit;overflow=hidden;fillColor=none;top=0;left=0;bottom=0;right=0;pointerEvents=1;" parent="1940" vertex="1">
                    <mxGeometry x="40" width="39" height="40" as="geometry">
                        <mxRectangle width="39" height="40" as="alternateBounds"/>
                    </mxGeometry>
                </mxCell>
                <mxCell id="1943" value="&lt;font style=&quot;font-size: 16px;&quot;&gt;16&lt;/font&gt;" style="shape=partialRectangle;html=1;whiteSpace=wrap;connectable=0;strokeColor=inherit;overflow=hidden;fillColor=none;top=0;left=0;bottom=0;right=0;pointerEvents=1;" parent="1940" vertex="1">
                    <mxGeometry x="79" width="41" height="40" as="geometry">
                        <mxRectangle width="41" height="40" as="alternateBounds"/>
                    </mxGeometry>
                </mxCell>
                <mxCell id="1944" value="&lt;font style=&quot;font-size: 16px;&quot;&gt;24&lt;/font&gt;" style="shape=partialRectangle;html=1;whiteSpace=wrap;connectable=0;strokeColor=inherit;overflow=hidden;fillColor=none;top=0;left=0;bottom=0;right=0;pointerEvents=1;" parent="1940" vertex="1">
                    <mxGeometry x="120" width="40" height="40" as="geometry">
                        <mxRectangle width="40" height="40" as="alternateBounds"/>
                    </mxGeometry>
                </mxCell>
                <mxCell id="1945" value="&lt;font style=&quot;font-size: 16px;&quot;&gt;32&lt;/font&gt;" style="shape=partialRectangle;html=1;whiteSpace=wrap;connectable=0;strokeColor=inherit;overflow=hidden;fillColor=none;top=0;left=0;bottom=0;right=0;pointerEvents=1;" parent="1940" vertex="1">
                    <mxGeometry x="160" width="39" height="40" as="geometry">
                        <mxRectangle width="39" height="40" as="alternateBounds"/>
                    </mxGeometry>
                </mxCell>
                <mxCell id="1946" value="&lt;font style=&quot;font-size: 16px;&quot;&gt;40&lt;/font&gt;" style="shape=partialRectangle;html=1;whiteSpace=wrap;connectable=0;strokeColor=inherit;overflow=hidden;fillColor=none;top=0;left=0;bottom=0;right=0;pointerEvents=1;" parent="1940" vertex="1">
                    <mxGeometry x="199" width="41" height="40" as="geometry">
                        <mxRectangle width="41" height="40" as="alternateBounds"/>
                    </mxGeometry>
                </mxCell>
                <mxCell id="1947" value="&lt;font style=&quot;font-size: 16px;&quot;&gt;48&lt;/font&gt;" style="shape=partialRectangle;html=1;whiteSpace=wrap;connectable=0;strokeColor=inherit;overflow=hidden;fillColor=none;top=0;left=0;bottom=0;right=0;pointerEvents=1;" parent="1940" vertex="1">
                    <mxGeometry x="240" width="41" height="40" as="geometry">
                        <mxRectangle width="41" height="40" as="alternateBounds"/>
                    </mxGeometry>
                </mxCell>
                <mxCell id="1948" value="&lt;font style=&quot;font-size: 16px;&quot;&gt;56&lt;/font&gt;" style="shape=partialRectangle;html=1;whiteSpace=wrap;connectable=0;strokeColor=inherit;overflow=hidden;fillColor=none;top=0;left=0;bottom=0;right=0;pointerEvents=1;" parent="1940" vertex="1">
                    <mxGeometry x="281" width="39" height="40" as="geometry">
                        <mxRectangle width="39" height="40" as="alternateBounds"/>
                    </mxGeometry>
                </mxCell>
                <mxCell id="2014" value="&lt;font style=&quot;font-size: 16px;&quot;&gt;64&lt;/font&gt;" style="shape=partialRectangle;html=1;whiteSpace=wrap;connectable=0;strokeColor=inherit;overflow=hidden;fillColor=none;top=0;left=0;bottom=0;right=0;pointerEvents=1;" parent="1940" vertex="1">
                    <mxGeometry x="320" width="39" height="40" as="geometry">
                        <mxRectangle width="39" height="40" as="alternateBounds"/>
                    </mxGeometry>
                </mxCell>
                <mxCell id="2017" value="PE 3" style="rounded=1;whiteSpace=wrap;html=1;fontSize=35;opacity=50;fillColor=#fff2cc;strokeColor=#d6b656;" parent="1" vertex="1">
                    <mxGeometry x="2188" y="15151" width="150" height="92" as="geometry"/>
                </mxCell>
                <mxCell id="2029" value="PE 2" style="rounded=1;whiteSpace=wrap;html=1;fontSize=35;opacity=50;fillColor=#f8cecc;strokeColor=#b85450;" parent="1" vertex="1">
                    <mxGeometry x="2519.12" y="15148" width="102" height="98" as="geometry"/>
                </mxCell>
                <mxCell id="2032" value="&lt;font size=&quot;1&quot; style=&quot;&quot;&gt;&lt;b style=&quot;font-size: 40px;&quot;&gt;Matrix Partition&lt;/b&gt;&lt;/font&gt;" style="text;html=1;strokeColor=none;fillColor=none;align=center;verticalAlign=middle;whiteSpace=wrap;rounded=0;" parent="1" vertex="1">
                    <mxGeometry x="457" y="14874" width="357" height="76" as="geometry"/>
                </mxCell>
                <mxCell id="2110" value="&lt;font size=&quot;1&quot; style=&quot;&quot;&gt;&lt;b style=&quot;font-size: 40px;&quot;&gt;Stream Compress&lt;/b&gt;&lt;/font&gt;" style="text;html=1;strokeColor=none;fillColor=none;align=center;verticalAlign=middle;whiteSpace=wrap;rounded=0;" parent="1" vertex="1">
                    <mxGeometry x="2258.5" y="14877" width="357" height="76" as="geometry"/>
                </mxCell>
                <mxCell id="2111" value="&lt;span style=&quot;font-size: 30px;&quot;&gt;&lt;b&gt;Flit&lt;/b&gt;&lt;/span&gt;" style="text;html=1;strokeColor=none;fillColor=none;align=center;verticalAlign=middle;whiteSpace=wrap;rounded=0;" parent="1" vertex="1">
                    <mxGeometry x="2681.13" y="15913" width="107" height="76" as="geometry"/>
                </mxCell>
                <mxCell id="2113" value="&lt;span style=&quot;font-size: 30px;&quot;&gt;&lt;b&gt;Tile Packet&lt;/b&gt;&lt;/span&gt;" style="text;html=1;strokeColor=none;fillColor=none;align=center;verticalAlign=middle;whiteSpace=wrap;rounded=0;" parent="1" vertex="1">
                    <mxGeometry x="2658" y="15636.5" width="217.75" height="76" as="geometry"/>
                </mxCell>
                <mxCell id="2115" value="" style="shape=table;startSize=0;container=1;collapsible=0;childLayout=tableLayout;" parent="1" vertex="1">
                    <mxGeometry x="2321.5" y="15995" width="846.25" height="40" as="geometry"/>
                </mxCell>
                <mxCell id="2116" value="" style="shape=tableRow;horizontal=0;startSize=0;swimlaneHead=0;swimlaneBody=0;strokeColor=inherit;top=0;left=0;bottom=0;right=0;collapsible=0;dropTarget=0;fillColor=none;points=[[0,0.5],[1,0.5]];portConstraint=eastwest;" parent="2115" vertex="1">
                    <mxGeometry width="846.25" height="40" as="geometry"/>
                </mxCell>
                <mxCell id="2117" value="&lt;font style=&quot;font-size: 18px;&quot;&gt;COO Edge&lt;/font&gt;" style="shape=partialRectangle;html=1;whiteSpace=wrap;connectable=0;strokeColor=inherit;overflow=hidden;fillColor=none;top=0;left=0;bottom=0;right=0;pointerEvents=1;" parent="2116" vertex="1">
                    <mxGeometry width="104" height="40" as="geometry">
                        <mxRectangle width="104" height="40" as="alternateBounds"/>
                    </mxGeometry>
                </mxCell>
                <mxCell id="2118" value="&lt;span style=&quot;font-size: 18px;&quot;&gt;COO Edge&lt;/span&gt;" style="shape=partialRectangle;html=1;whiteSpace=wrap;connectable=0;strokeColor=inherit;overflow=hidden;fillColor=none;top=0;left=0;bottom=0;right=0;pointerEvents=1;" parent="2116" vertex="1">
                    <mxGeometry x="104" width="104" height="40" as="geometry">
                        <mxRectangle width="104" height="40" as="alternateBounds"/>
                    </mxGeometry>
                </mxCell>
                <mxCell id="2119" value="&lt;span style=&quot;font-size: 18px;&quot;&gt;COO Edge&lt;/span&gt;" style="shape=partialRectangle;html=1;whiteSpace=wrap;connectable=0;strokeColor=inherit;overflow=hidden;fillColor=none;top=0;left=0;bottom=0;right=0;pointerEvents=1;" parent="2116" vertex="1">
                    <mxGeometry x="208" width="103" height="40" as="geometry">
                        <mxRectangle width="103" height="40" as="alternateBounds"/>
                    </mxGeometry>
                </mxCell>
                <mxCell id="2148" value="&lt;span style=&quot;font-size: 18px;&quot;&gt;COO Edge&lt;/span&gt;" style="shape=partialRectangle;html=1;whiteSpace=wrap;connectable=0;strokeColor=inherit;overflow=hidden;fillColor=none;top=0;left=0;bottom=0;right=0;pointerEvents=1;" parent="2116" vertex="1">
                    <mxGeometry x="311" width="109" height="40" as="geometry">
                        <mxRectangle width="109" height="40" as="alternateBounds"/>
                    </mxGeometry>
                </mxCell>
                <mxCell id="2149" value="&lt;span style=&quot;font-size: 18px;&quot;&gt;COO Edge&lt;/span&gt;" style="shape=partialRectangle;html=1;whiteSpace=wrap;connectable=0;strokeColor=inherit;overflow=hidden;fillColor=none;top=0;left=0;bottom=0;right=0;pointerEvents=1;" parent="2116" vertex="1">
                    <mxGeometry x="420" width="107" height="40" as="geometry">
                        <mxRectangle width="107" height="40" as="alternateBounds"/>
                    </mxGeometry>
                </mxCell>
                <mxCell id="2150" value="&lt;span style=&quot;font-size: 18px;&quot;&gt;COO Edge&lt;/span&gt;" style="shape=partialRectangle;html=1;whiteSpace=wrap;connectable=0;strokeColor=inherit;overflow=hidden;fillColor=none;top=0;left=0;bottom=0;right=0;pointerEvents=1;" parent="2116" vertex="1">
                    <mxGeometry x="527" width="106" height="40" as="geometry">
                        <mxRectangle width="106" height="40" as="alternateBounds"/>
                    </mxGeometry>
                </mxCell>
                <mxCell id="2151" value="&lt;span style=&quot;font-size: 18px;&quot;&gt;COO Edge&lt;/span&gt;" style="shape=partialRectangle;html=1;whiteSpace=wrap;connectable=0;strokeColor=inherit;overflow=hidden;fillColor=none;top=0;left=0;bottom=0;right=0;pointerEvents=1;" parent="2116" vertex="1">
                    <mxGeometry x="633" width="106" height="40" as="geometry">
                        <mxRectangle width="106" height="40" as="alternateBounds"/>
                    </mxGeometry>
                </mxCell>
                <mxCell id="2152" value="&lt;span style=&quot;font-size: 18px;&quot;&gt;COO Edge&lt;/span&gt;" style="shape=partialRectangle;html=1;whiteSpace=wrap;connectable=0;strokeColor=inherit;overflow=hidden;fillColor=none;top=0;left=0;bottom=0;right=0;pointerEvents=1;" parent="2116" vertex="1">
                    <mxGeometry x="739" width="107" height="40" as="geometry">
                        <mxRectangle width="107" height="40" as="alternateBounds"/>
                    </mxGeometry>
                </mxCell>
                <mxCell id="2154" value="" style="shape=table;startSize=0;container=1;collapsible=0;childLayout=tableLayout;" parent="1" vertex="1">
                    <mxGeometry x="2306.88" y="15705" width="382.5" height="73" as="geometry"/>
                </mxCell>
                <mxCell id="2155" value="" style="shape=tableRow;horizontal=0;startSize=0;swimlaneHead=0;swimlaneBody=0;strokeColor=inherit;top=0;left=0;bottom=0;right=0;collapsible=0;dropTarget=0;fillColor=none;points=[[0,0.5],[1,0.5]];portConstraint=eastwest;" parent="2154" vertex="1">
                    <mxGeometry width="382.5" height="36" as="geometry"/>
                </mxCell>
                <mxCell id="2170" value="&lt;span style=&quot;font-size: 24px;&quot;&gt;Flit&lt;/span&gt;" style="shape=partialRectangle;html=1;whiteSpace=wrap;connectable=0;strokeColor=inherit;overflow=hidden;fillColor=none;top=0;left=0;bottom=0;right=0;pointerEvents=1;" parent="2155" vertex="1">
                    <mxGeometry width="215" height="36" as="geometry">
                        <mxRectangle width="215" height="36" as="alternateBounds"/>
                    </mxGeometry>
                </mxCell>
                <mxCell id="2156" value="&lt;font style=&quot;font-size: 24px;&quot;&gt;Packet Header&lt;/font&gt;" style="shape=partialRectangle;html=1;whiteSpace=wrap;connectable=0;strokeColor=inherit;overflow=hidden;fillColor=none;top=0;left=0;bottom=0;right=0;pointerEvents=1;" parent="2155" vertex="1">
                    <mxGeometry x="215" width="168" height="36" as="geometry">
                        <mxRectangle width="168" height="36" as="alternateBounds"/>
                    </mxGeometry>
                </mxCell>
                <mxCell id="2164" style="shape=tableRow;horizontal=0;startSize=0;swimlaneHead=0;swimlaneBody=0;strokeColor=inherit;top=0;left=0;bottom=0;right=0;collapsible=0;dropTarget=0;fillColor=none;points=[[0,0.5],[1,0.5]];portConstraint=eastwest;" parent="2154" vertex="1">
                    <mxGeometry y="36" width="382.5" height="37" as="geometry"/>
                </mxCell>
                <mxCell id="2171" value="&lt;font style=&quot;font-size: 24px;&quot;&gt;Flit&lt;/font&gt;" style="shape=partialRectangle;html=1;whiteSpace=wrap;connectable=0;strokeColor=inherit;overflow=hidden;fillColor=none;top=0;left=0;bottom=0;right=0;pointerEvents=1;rowspan=1;colspan=2;" parent="2164" vertex="1">
                    <mxGeometry width="383" height="37" as="geometry">
                        <mxRectangle width="215" height="37" as="alternateBounds"/>
                    </mxGeometry>
                </mxCell>
                <mxCell id="2165" value="&lt;font style=&quot;font-size: 18px;&quot;&gt;Flit&lt;/font&gt;" style="shape=partialRectangle;html=1;whiteSpace=wrap;connectable=0;strokeColor=inherit;overflow=hidden;fillColor=none;top=0;left=0;bottom=0;right=0;pointerEvents=1;" parent="2164" vertex="1" visible="0">
                    <mxGeometry x="215" width="168" height="37" as="geometry">
                        <mxRectangle width="168" height="37" as="alternateBounds"/>
                    </mxGeometry>
                </mxCell>
                <mxCell id="2174" value="&lt;span style=&quot;font-size: 30px;&quot;&gt;&lt;font color=&quot;#cc0066&quot;&gt;&lt;b&gt;Column Block Stream&lt;/b&gt;&lt;/font&gt;&lt;/span&gt;" style="text;html=1;strokeColor=none;fillColor=none;align=center;verticalAlign=middle;whiteSpace=wrap;rounded=0;" parent="1" vertex="1">
                    <mxGeometry x="2672" y="15310" width="330" height="76" as="geometry"/>
                </mxCell>
                <mxCell id="2519" style="edgeStyle=none;html=1;fontColor=#FF3333;" edge="1" parent="1">
                    <mxGeometry relative="1" as="geometry">
                        <mxPoint x="2323.7646412568934" y="15698.411786247701" as="targetPoint"/>
                        <mxPoint x="2554" y="15501" as="sourcePoint"/>
                    </mxGeometry>
                </mxCell>
                <mxCell id="2520" style="edgeStyle=none;html=1;fontColor=#FF3333;" edge="1" parent="1">
                    <mxGeometry relative="1" as="geometry">
                        <mxPoint x="2672" y="15699" as="targetPoint"/>
                        <mxPoint x="2662" y="15500" as="sourcePoint"/>
                    </mxGeometry>
                </mxCell>
                <mxCell id="2188" value="&lt;font style=&quot;font-size: 24px;&quot;&gt;Tile 1&lt;/font&gt;" style="rounded=0;whiteSpace=wrap;html=1;strokeWidth=2;strokeColor=#CC0066;fillColor=none;" parent="1" vertex="1">
                    <mxGeometry x="2544.38" y="15389" width="126" height="107" as="geometry"/>
                </mxCell>
                <mxCell id="2189" value="&lt;font style=&quot;font-size: 24px;&quot;&gt;Tile 3&lt;/font&gt;" style="rounded=0;whiteSpace=wrap;html=1;strokeWidth=2;strokeColor=#CC0066;fillColor=none;" parent="1" vertex="1">
                    <mxGeometry x="2409.63" y="15389" width="134.75" height="107" as="geometry"/>
                </mxCell>
                <mxCell id="2190" value="&lt;font style=&quot;font-size: 24px;&quot;&gt;Tile 4&lt;/font&gt;" style="rounded=0;whiteSpace=wrap;html=1;strokeWidth=2;strokeColor=#CC0066;fillColor=none;" parent="1" vertex="1">
                    <mxGeometry x="2299.63" y="15389" width="110" height="107" as="geometry"/>
                </mxCell>
                <mxCell id="2191" value="&lt;font style=&quot;font-size: 24px;&quot;&gt;Tile 7&lt;/font&gt;" style="rounded=0;whiteSpace=wrap;html=1;strokeWidth=2;strokeColor=#CC0066;fillColor=none;" parent="1" vertex="1">
                    <mxGeometry x="2186.63" y="15389" width="113.25" height="107" as="geometry"/>
                </mxCell>
                <mxCell id="2192" value="&lt;span style=&quot;font-size: 30px;&quot;&gt;&lt;font color=&quot;#330066&quot;&gt;&lt;b&gt;Row Block Stream&lt;/b&gt;&lt;/font&gt;&lt;/span&gt;" style="text;html=1;strokeColor=none;fillColor=none;align=center;verticalAlign=middle;whiteSpace=wrap;rounded=0;" parent="1" vertex="1">
                    <mxGeometry x="2689.38" y="14950" width="330" height="76" as="geometry"/>
                </mxCell>
                <mxCell id="2193" value="&lt;font style=&quot;font-size: 24px;&quot;&gt;CB 1&lt;/font&gt;" style="rounded=0;whiteSpace=wrap;html=1;strokeWidth=2;strokeColor=#3333FF;fillColor=none;" parent="1" vertex="1">
                    <mxGeometry x="2627" y="15031" width="220" height="110" as="geometry"/>
                </mxCell>
                <mxCell id="2194" value="&lt;font style=&quot;font-size: 24px;&quot;&gt;CB 3&lt;/font&gt;" style="rounded=0;whiteSpace=wrap;html=1;strokeWidth=2;strokeColor=#3333FF;fillColor=none;" parent="1" vertex="1">
                    <mxGeometry x="2519.5" y="15031" width="107.5" height="110" as="geometry"/>
                </mxCell>
                <mxCell id="2195" value="&lt;font style=&quot;font-size: 24px;&quot;&gt;CB 4&lt;/font&gt;" style="rounded=0;whiteSpace=wrap;html=1;strokeWidth=2;strokeColor=#3333FF;fillColor=none;" parent="1" vertex="1">
                    <mxGeometry x="2350" y="15031" width="169" height="110" as="geometry"/>
                </mxCell>
                <mxCell id="2196" value="&lt;font style=&quot;font-size: 24px;&quot;&gt;CB 7&lt;/font&gt;" style="rounded=0;whiteSpace=wrap;html=1;strokeWidth=2;strokeColor=#3333FF;fillColor=none;" parent="1" vertex="1">
                    <mxGeometry x="2189" y="15031" width="161" height="110" as="geometry"/>
                </mxCell>
                <mxCell id="423" value="" style="rounded=0;whiteSpace=wrap;html=1;fillColor=none;strokeWidth=6;strokeColor=#3333FF;movable=1;resizable=1;rotatable=1;deletable=1;editable=1;connectable=1;" parent="1" vertex="1">
                    <mxGeometry x="33" y="14964" width="1235.5" height="1000" as="geometry"/>
                </mxCell>
                <mxCell id="2197" value="" style="shape=flexArrow;endArrow=classic;startArrow=classic;html=1;fontSize=40;fontColor=#CC0066;" parent="1" edge="1">
                    <mxGeometry width="100" height="100" relative="1" as="geometry">
                        <mxPoint x="1733" y="15451.5" as="sourcePoint"/>
                        <mxPoint x="2116" y="15451.5" as="targetPoint"/>
                    </mxGeometry>
                </mxCell>
                <mxCell id="2198" value="" style="shape=flexArrow;endArrow=classic;startArrow=classic;html=1;fontSize=40;fontColor=#CC0066;" parent="1" edge="1">
                    <mxGeometry width="100" height="100" relative="1" as="geometry">
                        <mxPoint x="1738.5" y="15094.02" as="sourcePoint"/>
                        <mxPoint x="2130.5" y="15094.02" as="targetPoint"/>
                    </mxGeometry>
                </mxCell>
                <mxCell id="2199" value="&lt;b style=&quot;border-color: var(--border-color); font-family: Helvetica; font-style: normal; font-variant-ligatures: normal; font-variant-caps: normal; letter-spacing: normal; orphans: 2; text-align: right; text-indent: 0px; text-transform: none; widows: 2; word-spacing: 0px; -webkit-text-stroke-width: 0px; text-decoration-thickness: initial; text-decoration-style: initial; text-decoration-color: initial; color: rgb(255, 0, 0); background-color: rgb(251, 251, 251);&quot;&gt;&lt;font style=&quot;font-size: 30px;&quot;&gt;Column Block&lt;/font&gt;&lt;/b&gt;" style="text;whiteSpace=wrap;html=1;fontSize=24;fontColor=#CC0066;" parent="1" vertex="1">
                    <mxGeometry x="1519.4966259765624" y="15219.003292643229" width="250" height="62" as="geometry"/>
                </mxCell>
                <mxCell id="2200" value="&lt;b style=&quot;border-color: var(--border-color); font-family: Helvetica; font-style: normal; font-variant-ligatures: normal; font-variant-caps: normal; letter-spacing: normal; orphans: 2; text-align: right; text-indent: 0px; text-transform: none; widows: 2; word-spacing: 0px; -webkit-text-stroke-width: 0px; text-decoration-thickness: initial; text-decoration-style: initial; text-decoration-color: initial; color: rgb(51, 51, 255); background-color: rgb(251, 251, 251);&quot;&gt;&lt;font style=&quot;font-size: 30px;&quot;&gt;Row Block&lt;/font&gt;&lt;/b&gt;" style="text;whiteSpace=wrap;html=1;fontSize=30;fontColor=#CC0066;" parent="1" vertex="1">
                    <mxGeometry x="1541.499959309896" y="14961.000010172525" width="197" height="62" as="geometry"/>
                </mxCell>
                <mxCell id="2201" value="&lt;b style=&quot;border-color: var(--border-color); color: rgb(0, 0, 0); font-family: Helvetica; font-style: normal; font-variant-ligatures: normal; font-variant-caps: normal; letter-spacing: normal; orphans: 2; text-align: right; text-indent: 0px; text-transform: none; widows: 2; word-spacing: 0px; -webkit-text-stroke-width: 0px; text-decoration-thickness: initial; text-decoration-style: initial; text-decoration-color: initial; background-color: rgb(251, 251, 251);&quot;&gt;&lt;font style=&quot;font-size: 30px;&quot;&gt;Tile&lt;/font&gt;&lt;/b&gt;" style="text;whiteSpace=wrap;html=1;fontSize=30;fontColor=#CC0066;" parent="1" vertex="1">
                    <mxGeometry x="1596.0032926432295" y="15631.999959309896" width="88" height="64" as="geometry"/>
                </mxCell>
                <mxCell id="2202" value="" style="shape=table;startSize=0;container=1;collapsible=0;childLayout=tableLayout;" parent="1" vertex="1">
                    <mxGeometry x="2306" y="15813" width="382.5" height="37" as="geometry"/>
                </mxCell>
                <mxCell id="2206" style="shape=tableRow;horizontal=0;startSize=0;swimlaneHead=0;swimlaneBody=0;strokeColor=inherit;top=0;left=0;bottom=0;right=0;collapsible=0;dropTarget=0;fillColor=none;points=[[0,0.5],[1,0.5]];portConstraint=eastwest;" parent="2202" vertex="1">
                    <mxGeometry width="382.5" height="37" as="geometry"/>
                </mxCell>
                <mxCell id="2207" value="&lt;font style=&quot;font-size: 24px;&quot;&gt;Flit&lt;/font&gt;" style="shape=partialRectangle;html=1;whiteSpace=wrap;connectable=0;strokeColor=inherit;overflow=hidden;fillColor=none;top=0;left=0;bottom=0;right=0;pointerEvents=1;rowspan=1;colspan=2;" parent="2206" vertex="1">
                    <mxGeometry width="383" height="37" as="geometry">
                        <mxRectangle width="165" height="37" as="alternateBounds"/>
                    </mxGeometry>
                </mxCell>
                <mxCell id="2208" value="&lt;font style=&quot;font-size: 18px;&quot;&gt;Flit&lt;/font&gt;" style="shape=partialRectangle;html=1;whiteSpace=wrap;connectable=0;strokeColor=inherit;overflow=hidden;fillColor=none;top=0;left=0;bottom=0;right=0;pointerEvents=1;" parent="2206" vertex="1" visible="0">
                    <mxGeometry x="165" width="218" height="37" as="geometry">
                        <mxRectangle width="218" height="37" as="alternateBounds"/>
                    </mxGeometry>
                </mxCell>
                <mxCell id="2215" value="&lt;span style=&quot;font-size: 30px;&quot;&gt;&lt;b&gt;......&lt;/b&gt;&lt;/span&gt;" style="text;html=1;strokeColor=none;fillColor=none;align=center;verticalAlign=middle;whiteSpace=wrap;rounded=0;" parent="1" vertex="1">
                    <mxGeometry x="2388.38" y="15750" width="217.75" height="76" as="geometry"/>
                </mxCell>
                <mxCell id="2216" style="edgeStyle=none;html=1;fontSize=16;fontColor=#CC0066;" parent="1" edge="1">
                    <mxGeometry relative="1" as="geometry">
                        <mxPoint x="2801" y="15783" as="targetPoint"/>
                        <mxPoint x="2699" y="15719" as="sourcePoint"/>
                    </mxGeometry>
                </mxCell>
                <mxCell id="2222" value="&lt;span style=&quot;border-color: var(--border-color); color: rgb(0, 0, 0); font-family: Helvetica; font-size: 30px; font-style: normal; font-variant-ligatures: normal; font-variant-caps: normal; letter-spacing: normal; orphans: 2; text-align: center; text-indent: 0px; text-transform: none; widows: 2; word-spacing: 0px; -webkit-text-stroke-width: 0px; background-color: rgb(251, 251, 251); text-decoration-thickness: initial; text-decoration-style: initial; text-decoration-color: initial;&quot;&gt;Tile Packet Header&lt;/span&gt;" style="text;whiteSpace=wrap;html=1;fontSize=16;fontColor=#CC0066;" parent="1" vertex="1">
                    <mxGeometry x="2870.75" y="15712.5" width="261.74" height="58" as="geometry"/>
                </mxCell>
                <mxCell id="2229" value="" style="shape=table;startSize=0;container=1;collapsible=0;childLayout=tableLayout;" parent="1" vertex="1">
                    <mxGeometry x="2810" y="15766.5" width="370" height="37" as="geometry"/>
                </mxCell>
                <mxCell id="2230" style="shape=tableRow;horizontal=0;startSize=0;swimlaneHead=0;swimlaneBody=0;strokeColor=inherit;top=0;left=0;bottom=0;right=0;collapsible=0;dropTarget=0;fillColor=none;points=[[0,0.5],[1,0.5]];portConstraint=eastwest;" parent="2229" vertex="1">
                    <mxGeometry width="370" height="37" as="geometry"/>
                </mxCell>
                <mxCell id="2232" value="&lt;font style=&quot;font-size: 24px;&quot;&gt;Head Identifier&lt;/font&gt;" style="shape=partialRectangle;html=1;whiteSpace=wrap;connectable=0;strokeColor=inherit;overflow=hidden;fillColor=none;top=0;left=0;bottom=0;right=0;pointerEvents=1;" parent="2230" vertex="1">
                    <mxGeometry width="186" height="37" as="geometry">
                        <mxRectangle width="186" height="37" as="alternateBounds"/>
                    </mxGeometry>
                </mxCell>
                <mxCell id="2237" value="&lt;span style=&quot;font-size: 24px;&quot;&gt;Tile Row Index&lt;/span&gt;" style="shape=partialRectangle;html=1;whiteSpace=wrap;connectable=0;strokeColor=inherit;overflow=hidden;fillColor=none;top=0;left=0;bottom=0;right=0;pointerEvents=1;" parent="2230" vertex="1">
                    <mxGeometry x="186" width="184" height="37" as="geometry">
                        <mxRectangle width="184" height="37" as="alternateBounds"/>
                    </mxGeometry>
                </mxCell>
                <mxCell id="2244" value="&lt;span style=&quot;border-color: var(--border-color); color: rgb(0, 0, 0); font-family: Helvetica; font-size: 30px; font-style: normal; font-variant-ligatures: normal; font-variant-caps: normal; letter-spacing: normal; orphans: 2; text-align: center; text-indent: 0px; text-transform: none; widows: 2; word-spacing: 0px; -webkit-text-stroke-width: 0px; background-color: rgb(251, 251, 251); text-decoration-thickness: initial; text-decoration-style: initial; text-decoration-color: initial;&quot;&gt;Column Block Header&lt;/span&gt;" style="text;whiteSpace=wrap;html=1;fontSize=16;fontColor=#CC0066;" parent="1" vertex="1">
                    <mxGeometry x="2861.63" y="15380" width="318" height="49" as="geometry"/>
                </mxCell>
                <mxCell id="2245" value="" style="shape=table;startSize=0;container=1;collapsible=0;childLayout=tableLayout;" parent="1" vertex="1">
                    <mxGeometry x="2752.63" y="15438" width="550" height="37" as="geometry"/>
                </mxCell>
                <mxCell id="2246" style="shape=tableRow;horizontal=0;startSize=0;swimlaneHead=0;swimlaneBody=0;strokeColor=inherit;top=0;left=0;bottom=0;right=0;collapsible=0;dropTarget=0;fillColor=none;points=[[0,0.5],[1,0.5]];portConstraint=eastwest;" parent="2245" vertex="1">
                    <mxGeometry width="550" height="37" as="geometry"/>
                </mxCell>
                <mxCell id="2247" value="&lt;font style=&quot;font-size: 24px;&quot;&gt;Tile Packet Header&lt;/font&gt;" style="shape=partialRectangle;html=1;whiteSpace=wrap;connectable=0;strokeColor=inherit;overflow=hidden;fillColor=none;top=0;left=0;bottom=0;right=0;pointerEvents=1;" parent="2246" vertex="1">
                    <mxGeometry width="220" height="37" as="geometry">
                        <mxRectangle width="220" height="37" as="alternateBounds"/>
                    </mxGeometry>
                </mxCell>
                <mxCell id="2248" value="&lt;font style=&quot;font-size: 24px;&quot;&gt;Column Block Column&lt;/font&gt;&lt;span style=&quot;font-size: 24px;&quot;&gt;&amp;nbsp;Index&lt;/span&gt;" style="shape=partialRectangle;html=1;whiteSpace=wrap;connectable=0;strokeColor=inherit;overflow=hidden;fillColor=none;top=0;left=0;bottom=0;right=0;pointerEvents=1;" parent="2246" vertex="1">
                    <mxGeometry x="220" width="330" height="37" as="geometry">
                        <mxRectangle width="330" height="37" as="alternateBounds"/>
                    </mxGeometry>
                </mxCell>
                <mxCell id="2249" value="&lt;span style=&quot;border-color: var(--border-color); color: rgb(0, 0, 0); font-family: Helvetica; font-size: 30px; font-style: normal; font-variant-ligatures: normal; font-variant-caps: normal; letter-spacing: normal; orphans: 2; text-align: center; text-indent: 0px; text-transform: none; widows: 2; word-spacing: 0px; -webkit-text-stroke-width: 0px; background-color: rgb(251, 251, 251); text-decoration-thickness: initial; text-decoration-style: initial; text-decoration-color: initial;&quot;&gt;Row Block Header&lt;/span&gt;" style="text;whiteSpace=wrap;html=1;fontSize=16;fontColor=#CC0066;" parent="1" vertex="1">
                    <mxGeometry x="3059.5" y="15014" width="278" height="58" as="geometry"/>
                </mxCell>
                <mxCell id="2250" value="" style="shape=table;startSize=0;container=1;collapsible=0;childLayout=tableLayout;" parent="1" vertex="1">
                    <mxGeometry x="2920" y="15073" width="557" height="37" as="geometry"/>
                </mxCell>
                <mxCell id="2251" style="shape=tableRow;horizontal=0;startSize=0;swimlaneHead=0;swimlaneBody=0;strokeColor=inherit;top=0;left=0;bottom=0;right=0;collapsible=0;dropTarget=0;fillColor=none;points=[[0,0.5],[1,0.5]];portConstraint=eastwest;" parent="2250" vertex="1">
                    <mxGeometry width="557" height="37" as="geometry"/>
                </mxCell>
                <mxCell id="2252" value="&lt;font style=&quot;font-size: 24px;&quot;&gt;Column Block Header&lt;/font&gt;" style="shape=partialRectangle;html=1;whiteSpace=wrap;connectable=0;strokeColor=inherit;overflow=hidden;fillColor=none;top=0;left=0;bottom=0;right=0;pointerEvents=1;" parent="2251" vertex="1">
                    <mxGeometry width="261" height="37" as="geometry">
                        <mxRectangle width="261" height="37" as="alternateBounds"/>
                    </mxGeometry>
                </mxCell>
                <mxCell id="2253" value="&lt;font style=&quot;font-size: 24px;&quot;&gt;Row Block Row&lt;/font&gt;&lt;span style=&quot;font-size: 24px;&quot;&gt;&amp;nbsp;Index&lt;/span&gt;" style="shape=partialRectangle;html=1;whiteSpace=wrap;connectable=0;strokeColor=inherit;overflow=hidden;fillColor=none;top=0;left=0;bottom=0;right=0;pointerEvents=1;" parent="2251" vertex="1">
                    <mxGeometry x="261" width="296" height="37" as="geometry">
                        <mxRectangle width="296" height="37" as="alternateBounds"/>
                    </mxGeometry>
                </mxCell>
                <mxCell id="2264" value="" style="shape=table;startSize=0;container=1;collapsible=0;childLayout=tableLayout;fillColor=none;strokeColor=#FF3333;strokeWidth=5;movable=1;resizable=1;rotatable=1;deletable=1;editable=1;connectable=1;" vertex="1" parent="1">
                    <mxGeometry x="283" y="14980" width="960" height="960" as="geometry"/>
                </mxCell>
                <mxCell id="2265" value="" style="shape=tableRow;horizontal=0;startSize=0;swimlaneHead=0;swimlaneBody=0;strokeColor=inherit;top=0;left=0;bottom=0;right=0;collapsible=0;dropTarget=0;fillColor=none;points=[[0,0.5],[1,0.5]];portConstraint=eastwest;" vertex="1" parent="2264">
                    <mxGeometry width="960" height="960" as="geometry"/>
                </mxCell>
                <mxCell id="2266" value="" style="shape=partialRectangle;html=1;whiteSpace=wrap;connectable=0;strokeColor=inherit;overflow=hidden;fillColor=none;top=0;left=0;bottom=0;right=0;pointerEvents=1;" vertex="1" parent="2265">
                    <mxGeometry width="120" height="960" as="geometry">
                        <mxRectangle width="120" height="960" as="alternateBounds"/>
                    </mxGeometry>
                </mxCell>
                <mxCell id="2267" value="" style="shape=partialRectangle;html=1;whiteSpace=wrap;connectable=0;strokeColor=inherit;overflow=hidden;fillColor=none;top=0;left=0;bottom=0;right=0;pointerEvents=1;" vertex="1" parent="2265">
                    <mxGeometry x="120" width="117" height="960" as="geometry">
                        <mxRectangle width="117" height="960" as="alternateBounds"/>
                    </mxGeometry>
                </mxCell>
                <mxCell id="2268" value="" style="shape=partialRectangle;html=1;whiteSpace=wrap;connectable=0;strokeColor=inherit;overflow=hidden;fillColor=none;top=0;left=0;bottom=0;right=0;pointerEvents=1;" vertex="1" parent="2265">
                    <mxGeometry x="237" width="120" height="960" as="geometry">
                        <mxRectangle width="120" height="960" as="alternateBounds"/>
                    </mxGeometry>
                </mxCell>
                <mxCell id="2269" value="" style="shape=partialRectangle;html=1;whiteSpace=wrap;connectable=0;strokeColor=inherit;overflow=hidden;fillColor=none;top=0;left=0;bottom=0;right=0;pointerEvents=1;" vertex="1" parent="2265">
                    <mxGeometry x="357" width="118" height="960" as="geometry">
                        <mxRectangle width="118" height="960" as="alternateBounds"/>
                    </mxGeometry>
                </mxCell>
                <mxCell id="2270" value="" style="shape=partialRectangle;html=1;whiteSpace=wrap;connectable=0;strokeColor=inherit;overflow=hidden;fillColor=none;top=0;left=0;bottom=0;right=0;pointerEvents=1;" vertex="1" parent="2265">
                    <mxGeometry x="475" width="119" height="960" as="geometry">
                        <mxRectangle width="119" height="960" as="alternateBounds"/>
                    </mxGeometry>
                </mxCell>
                <mxCell id="2271" value="" style="shape=partialRectangle;html=1;whiteSpace=wrap;connectable=0;strokeColor=inherit;overflow=hidden;fillColor=none;top=0;left=0;bottom=0;right=0;pointerEvents=1;" vertex="1" parent="2265">
                    <mxGeometry x="594" width="122" height="960" as="geometry">
                        <mxRectangle width="122" height="960" as="alternateBounds"/>
                    </mxGeometry>
                </mxCell>
                <mxCell id="2272" value="" style="shape=partialRectangle;html=1;whiteSpace=wrap;connectable=0;strokeColor=inherit;overflow=hidden;fillColor=none;top=0;left=0;bottom=0;right=0;pointerEvents=1;" vertex="1" parent="2265">
                    <mxGeometry x="716" width="122" height="960" as="geometry">
                        <mxRectangle width="122" height="960" as="alternateBounds"/>
                    </mxGeometry>
                </mxCell>
                <mxCell id="2273" style="shape=partialRectangle;html=1;whiteSpace=wrap;connectable=1;strokeColor=inherit;overflow=hidden;fillColor=none;top=0;left=0;bottom=0;right=0;pointerEvents=1;movable=1;resizable=1;rotatable=1;deletable=1;editable=1;" vertex="1" parent="2265">
                    <mxGeometry x="838" width="122" height="960" as="geometry">
                        <mxRectangle width="122" height="960" as="alternateBounds"/>
                    </mxGeometry>
                </mxCell>
                <mxCell id="2394" value="&lt;b style=&quot;border-color: var(--border-color); font-family: Helvetica; font-size: 35px; font-style: normal; font-variant-ligatures: normal; font-variant-caps: normal; letter-spacing: normal; orphans: 2; text-indent: 0px; text-transform: none; widows: 2; word-spacing: 0px; -webkit-text-stroke-width: 0px; background-color: rgb(251, 251, 251); text-decoration-thickness: initial; text-decoration-style: initial; text-decoration-color: initial;&quot;&gt;&lt;font color=&quot;#3333ff&quot;&gt;.................................&lt;/font&gt;&lt;/b&gt;" style="text;whiteSpace=wrap;html=1;fontSize=35;align=right;" vertex="1" parent="1">
                    <mxGeometry x="482" y="15967" width="352.5" height="59" as="geometry"/>
                </mxCell>
                <mxCell id="2395" value="&lt;font color=&quot;#3333ff&quot;&gt;&lt;span style=&quot;font-size: 33px;&quot;&gt;&lt;b&gt;Other Row Blocks&lt;/b&gt;&lt;/span&gt;&lt;/font&gt;" style="text;whiteSpace=wrap;html=1;fontSize=35;align=right;" vertex="1" parent="1">
                    <mxGeometry x="490" y="16071" width="316.2" height="59" as="geometry"/>
                </mxCell>
                <mxCell id="2402" style="edgeStyle=none;html=1;entryX=1.035;entryY=0.813;entryDx=0;entryDy=0;entryPerimeter=0;fontSize=30;fontColor=#B3B3B3;" edge="1" parent="1" source="2396" target="2273">
                    <mxGeometry relative="1" as="geometry"/>
                </mxCell>
                <mxCell id="2396" value="" style="rounded=0;whiteSpace=wrap;html=1;strokeWidth=1;strokeColor=#000000;fillColor=none;" vertex="1" parent="1">
                    <mxGeometry x="1569.5" y="15906" width="100" height="100" as="geometry"/>
                </mxCell>
                <mxCell id="2399" value="&lt;div style=&quot;&quot;&gt;&lt;b style=&quot;border-color: var(--border-color); color: rgb(0, 0, 0);&quot;&gt;None empty Tile&lt;/b&gt;&lt;/div&gt;" style="text;whiteSpace=wrap;html=1;fontSize=30;fontColor=#CC0066;align=right;" vertex="1" parent="1">
                    <mxGeometry x="1396" y="15694" width="107" height="119" as="geometry"/>
                </mxCell>
                <mxCell id="2400" value="&lt;b style=&quot;border-color: var(--border-color); color: rgb(0, 0, 0); font-family: Helvetica; font-style: normal; font-variant-ligatures: normal; font-variant-caps: normal; letter-spacing: normal; orphans: 2; text-indent: 0px; text-transform: none; widows: 2; word-spacing: 0px; -webkit-text-stroke-width: 0px; text-decoration-thickness: initial; text-decoration-style: initial; text-decoration-color: initial; background-color: rgb(251, 251, 251);&quot;&gt;&lt;font style=&quot;font-size: 30px;&quot;&gt;Empty Tile&lt;/font&gt;&lt;/b&gt;" style="text;whiteSpace=wrap;html=1;fontSize=30;fontColor=#CC0066;align=right;" vertex="1" parent="1">
                    <mxGeometry x="1399" y="15913" width="107" height="86" as="geometry"/>
                </mxCell>
                <mxCell id="2405" style="edgeStyle=none;html=1;fontFamily=Times New Roman;fontSize=30;fontColor=#B3B3B3;" edge="1" parent="1">
                    <mxGeometry relative="1" as="geometry">
                        <mxPoint x="2737.6300976562497" y="15449.800073242188" as="targetPoint"/>
                        <mxPoint x="2685.63" y="15423" as="sourcePoint"/>
                    </mxGeometry>
                </mxCell>
                <mxCell id="2403" value="" style="rounded=0;whiteSpace=wrap;html=1;strokeWidth=2;strokeColor=#000000;fillColor=none;" vertex="1" parent="1">
                    <mxGeometry x="2647.38" y="15389" width="23" height="52" as="geometry"/>
                </mxCell>
                <mxCell id="2406" value="" style="rounded=0;whiteSpace=wrap;html=1;strokeWidth=2;strokeColor=#000000;fillColor=none;" vertex="1" parent="1">
                    <mxGeometry x="2521.38" y="15389" width="23" height="52" as="geometry"/>
                </mxCell>
                <mxCell id="2407" value="" style="rounded=0;whiteSpace=wrap;html=1;strokeWidth=2;strokeColor=#000000;fillColor=none;" vertex="1" parent="1">
                    <mxGeometry x="2386.63" y="15389" width="23" height="51" as="geometry"/>
                </mxCell>
                <mxCell id="2408" value="" style="rounded=0;whiteSpace=wrap;html=1;strokeWidth=2;strokeColor=#000000;fillColor=none;" vertex="1" parent="1">
                    <mxGeometry x="2276.88" y="15389" width="23" height="52" as="geometry"/>
                </mxCell>
                <mxCell id="2414" style="edgeStyle=none;html=1;fontFamily=Times New Roman;fontSize=30;fontColor=#B3B3B3;" edge="1" parent="1">
                    <mxGeometry relative="1" as="geometry">
                        <mxPoint x="2906.85729108538" y="15094.714287894112" as="targetPoint"/>
                        <mxPoint x="2855" y="15062" as="sourcePoint"/>
                    </mxGeometry>
                </mxCell>
                <mxCell id="2410" value="" style="rounded=0;whiteSpace=wrap;html=1;strokeWidth=2;strokeColor=#000000;fillColor=none;" vertex="1" parent="1">
                    <mxGeometry x="2824" y="15031" width="23" height="49" as="geometry"/>
                </mxCell>
                <mxCell id="2411" value="" style="rounded=0;whiteSpace=wrap;html=1;strokeWidth=2;strokeColor=#000000;fillColor=none;" vertex="1" parent="1">
                    <mxGeometry x="2604" y="15032" width="23" height="48" as="geometry"/>
                </mxCell>
                <mxCell id="2412" value="" style="rounded=0;whiteSpace=wrap;html=1;strokeWidth=2;strokeColor=#000000;fillColor=none;" vertex="1" parent="1">
                    <mxGeometry x="2496.5" y="15031" width="23" height="48" as="geometry"/>
                </mxCell>
                <mxCell id="2413" value="" style="rounded=0;whiteSpace=wrap;html=1;strokeWidth=2;strokeColor=#000000;fillColor=none;" vertex="1" parent="1">
                    <mxGeometry x="2327" y="15031" width="23" height="47" as="geometry"/>
                </mxCell>
                <mxCell id="2416" value="" style="shape=singleArrow;whiteSpace=wrap;html=1;labelBackgroundColor=#B3B3B3;strokeColor=#00CC00;strokeWidth=3;fontFamily=Times New Roman;fontSize=30;fontColor=#B3B3B3;fillColor=none;arrowWidth=0.4070726985203062;arrowSize=0.23592185413417985;rotation=0;" vertex="1" parent="1">
                    <mxGeometry x="2173" y="15988.94" width="122" height="39" as="geometry"/>
                </mxCell>
                <mxCell id="2417" value="&lt;span style=&quot;border-color: var(--border-color); color: rgb(0, 0, 0); font-size: 30px; font-style: normal; font-variant-ligatures: normal; font-variant-caps: normal; letter-spacing: normal; orphans: 2; text-align: center; text-indent: 0px; text-transform: none; widows: 2; word-spacing: 0px; -webkit-text-stroke-width: 0px; background-color: rgb(251, 251, 251); text-decoration-thickness: initial; text-decoration-style: initial; text-decoration-color: initial;&quot;&gt;&lt;font face=&quot;Times New Roman&quot;&gt;Compress to Flit&lt;/font&gt;&lt;/span&gt;" style="text;whiteSpace=wrap;html=1;fontSize=16;fontColor=#CC0066;" vertex="1" parent="1">
                    <mxGeometry x="2147" y="15916.94" width="227" height="58" as="geometry"/>
                </mxCell>
                <mxCell id="2418" value="" style="shape=singleArrow;whiteSpace=wrap;html=1;labelBackgroundColor=#B3B3B3;strokeColor=#00CC00;strokeWidth=3;fontFamily=Times New Roman;fontSize=30;fontColor=#B3B3B3;fillColor=none;arrowWidth=0.42000300480765124;arrowSize=0.5051080571506871;rotation=-90;" vertex="1" parent="1">
                    <mxGeometry x="2714.57" y="15866.880000000001" width="42.12" height="39" as="geometry"/>
                </mxCell>
                <mxCell id="2419" value="&lt;span style=&quot;border-color: var(--border-color); color: rgb(0, 0, 0); font-style: normal; font-variant-ligatures: normal; font-variant-caps: normal; letter-spacing: normal; orphans: 2; text-align: center; text-indent: 0px; text-transform: none; widows: 2; word-spacing: 0px; -webkit-text-stroke-width: 0px; background-color: rgb(251, 251, 251); text-decoration-thickness: initial; text-decoration-style: initial; text-decoration-color: initial;&quot;&gt;&lt;font face=&quot;Times New Roman&quot; style=&quot;font-size: 28px;&quot;&gt;Mulit Flit form Packet&lt;/font&gt;&lt;/span&gt;" style="text;whiteSpace=wrap;html=1;fontSize=16;fontColor=#CC0066;" vertex="1" parent="1">
                    <mxGeometry x="2776" y="15868.94" width="265.75" height="48" as="geometry"/>
                </mxCell>
                <mxCell id="2420" value="" style="shape=singleArrow;whiteSpace=wrap;html=1;labelBackgroundColor=#B3B3B3;strokeColor=#00CC00;strokeWidth=3;fontFamily=Times New Roman;fontSize=30;fontColor=#B3B3B3;fillColor=none;arrowWidth=0.42000300480765124;arrowSize=0.5051080571506871;rotation=-90;" vertex="1" parent="1">
                    <mxGeometry x="2710.63" y="15537" width="42.12" height="39" as="geometry"/>
                </mxCell>
                <mxCell id="2421" value="&lt;span style=&quot;border-color: var(--border-color); color: rgb(0, 0, 0); font-style: normal; font-variant-ligatures: normal; font-variant-caps: normal; letter-spacing: normal; orphans: 2; text-align: center; text-indent: 0px; text-transform: none; widows: 2; word-spacing: 0px; -webkit-text-stroke-width: 0px; background-color: rgb(251, 251, 251); text-decoration-thickness: initial; text-decoration-style: initial; text-decoration-color: initial;&quot;&gt;&lt;font face=&quot;Times New Roman&quot; style=&quot;font-size: 27px;&quot;&gt;Multi Packet Form Column Block Stream&lt;/font&gt;&lt;/span&gt;" style="text;whiteSpace=wrap;html=1;fontSize=16;fontColor=#CC0066;" vertex="1" parent="1">
                    <mxGeometry x="2776.63" y="15538" width="488.57" height="50" as="geometry"/>
                </mxCell>
                <mxCell id="2422" value="" style="shape=singleArrow;whiteSpace=wrap;html=1;labelBackgroundColor=#B3B3B3;strokeColor=#00CC00;strokeWidth=3;fontFamily=Times New Roman;fontSize=30;fontColor=#B3B3B3;fillColor=none;arrowWidth=0.42000300480765124;arrowSize=0.5051080571506871;rotation=-90;" vertex="1" parent="1">
                    <mxGeometry x="2762" y="15271" width="42.12" height="39" as="geometry"/>
                </mxCell>
                <mxCell id="2423" value="&lt;span style=&quot;border-color: var(--border-color); color: rgb(0, 0, 0); font-style: normal; font-variant-ligatures: normal; font-variant-caps: normal; letter-spacing: normal; orphans: 2; text-align: center; text-indent: 0px; text-transform: none; widows: 2; word-spacing: 0px; -webkit-text-stroke-width: 0px; background-color: rgb(251, 251, 251); text-decoration-thickness: initial; text-decoration-style: initial; text-decoration-color: initial;&quot;&gt;&lt;font face=&quot;Times New Roman&quot; style=&quot;font-size: 27px;&quot;&gt;Form Row Block Stream&lt;/font&gt;&lt;/span&gt;" style="text;whiteSpace=wrap;html=1;fontSize=16;fontColor=#CC0066;" vertex="1" parent="1">
                    <mxGeometry x="2823.43" y="15273.06" width="294.57" height="49.94" as="geometry"/>
                </mxCell>
                <mxCell id="2424" value="" style="shape=table;startSize=0;container=1;collapsible=0;childLayout=tableLayout;fillColor=none;strokeColor=#FF3333;strokeWidth=5;movable=1;resizable=1;rotatable=1;deletable=1;editable=1;connectable=1;" vertex="1" parent="1">
                    <mxGeometry x="51" y="14980" width="120" height="960" as="geometry"/>
                </mxCell>
                <mxCell id="2425" value="" style="shape=tableRow;horizontal=0;startSize=0;swimlaneHead=0;swimlaneBody=0;strokeColor=inherit;top=0;left=0;bottom=0;right=0;collapsible=0;dropTarget=0;fillColor=none;points=[[0,0.5],[1,0.5]];portConstraint=eastwest;" vertex="1" parent="2424">
                    <mxGeometry width="120" height="960" as="geometry"/>
                </mxCell>
                <mxCell id="2426" value="" style="shape=partialRectangle;html=1;whiteSpace=wrap;connectable=0;strokeColor=inherit;overflow=hidden;fillColor=none;top=0;left=0;bottom=0;right=0;pointerEvents=1;" vertex="1" parent="2425">
                    <mxGeometry width="120" height="960" as="geometry">
                        <mxRectangle width="120" height="960" as="alternateBounds"/>
                    </mxGeometry>
                </mxCell>
                <mxCell id="2434" value="&lt;b style=&quot;border-color: var(--border-color); font-family: Helvetica; font-size: 35px; font-style: normal; font-variant-ligatures: normal; font-variant-caps: normal; letter-spacing: normal; orphans: 2; text-indent: 0px; text-transform: none; widows: 2; word-spacing: 0px; -webkit-text-stroke-width: 0px; background-color: rgb(251, 251, 251); text-decoration-thickness: initial; text-decoration-style: initial; text-decoration-color: initial;&quot;&gt;&lt;font color=&quot;#ff3333&quot;&gt;.................................&lt;/font&gt;&lt;/b&gt;" style="text;whiteSpace=wrap;html=1;fontSize=35;align=right;rotation=90;" vertex="1" parent="1">
                    <mxGeometry x="54" y="15440" width="352.5" height="59" as="geometry"/>
                </mxCell>
                <mxCell id="2436" value="" style="shape=table;startSize=0;container=1;collapsible=0;childLayout=tableLayout;" vertex="1" parent="1">
                    <mxGeometry x="1602" y="15281" width="40" height="320" as="geometry"/>
                </mxCell>
                <mxCell id="2446" value="" style="shape=tableRow;horizontal=0;startSize=0;swimlaneHead=0;swimlaneBody=0;strokeColor=inherit;top=0;left=0;bottom=0;right=0;collapsible=0;dropTarget=0;fillColor=none;points=[[0,0.5],[1,0.5]];portConstraint=eastwest;" vertex="1" parent="2436">
                    <mxGeometry width="40" height="40" as="geometry"/>
                </mxCell>
                <mxCell id="2447" value="" style="shape=partialRectangle;html=1;whiteSpace=wrap;connectable=0;strokeColor=inherit;overflow=hidden;fillColor=none;top=0;left=0;bottom=0;right=0;pointerEvents=1;" vertex="1" parent="2446">
                    <mxGeometry width="40" height="40" as="geometry">
                        <mxRectangle width="40" height="40" as="alternateBounds"/>
                    </mxGeometry>
                </mxCell>
                <mxCell id="2455" value="" style="shape=tableRow;horizontal=0;startSize=0;swimlaneHead=0;swimlaneBody=0;strokeColor=inherit;top=0;left=0;bottom=0;right=0;collapsible=0;dropTarget=0;fillColor=none;points=[[0,0.5],[1,0.5]];portConstraint=eastwest;" vertex="1" parent="2436">
                    <mxGeometry y="40" width="40" height="40" as="geometry"/>
                </mxCell>
                <mxCell id="2456" value="" style="shape=partialRectangle;html=1;whiteSpace=wrap;connectable=0;strokeColor=inherit;overflow=hidden;fillColor=#CCCCCC;top=0;left=0;bottom=0;right=0;pointerEvents=1;" vertex="1" parent="2455">
                    <mxGeometry width="40" height="40" as="geometry">
                        <mxRectangle width="40" height="40" as="alternateBounds"/>
                    </mxGeometry>
                </mxCell>
                <mxCell id="2464" value="" style="shape=tableRow;horizontal=0;startSize=0;swimlaneHead=0;swimlaneBody=0;strokeColor=inherit;top=0;left=0;bottom=0;right=0;collapsible=0;dropTarget=0;fillColor=none;points=[[0,0.5],[1,0.5]];portConstraint=eastwest;" vertex="1" parent="2436">
                    <mxGeometry y="80" width="40" height="40" as="geometry"/>
                </mxCell>
                <mxCell id="2465" value="" style="shape=partialRectangle;html=1;whiteSpace=wrap;connectable=0;strokeColor=inherit;overflow=hidden;fillColor=none;top=0;left=0;bottom=0;right=0;pointerEvents=1;" vertex="1" parent="2464">
                    <mxGeometry width="40" height="40" as="geometry">
                        <mxRectangle width="40" height="40" as="alternateBounds"/>
                    </mxGeometry>
                </mxCell>
                <mxCell id="2473" value="" style="shape=tableRow;horizontal=0;startSize=0;swimlaneHead=0;swimlaneBody=0;strokeColor=inherit;top=0;left=0;bottom=0;right=0;collapsible=0;dropTarget=0;fillColor=none;points=[[0,0.5],[1,0.5]];portConstraint=eastwest;" vertex="1" parent="2436">
                    <mxGeometry y="120" width="40" height="40" as="geometry"/>
                </mxCell>
                <mxCell id="2474" value="" style="shape=partialRectangle;html=1;whiteSpace=wrap;connectable=0;strokeColor=inherit;overflow=hidden;fillColor=none;top=0;left=0;bottom=0;right=0;pointerEvents=1;" vertex="1" parent="2473">
                    <mxGeometry width="40" height="40" as="geometry">
                        <mxRectangle width="40" height="40" as="alternateBounds"/>
                    </mxGeometry>
                </mxCell>
                <mxCell id="2482" value="" style="shape=tableRow;horizontal=0;startSize=0;swimlaneHead=0;swimlaneBody=0;strokeColor=inherit;top=0;left=0;bottom=0;right=0;collapsible=0;dropTarget=0;fillColor=none;points=[[0,0.5],[1,0.5]];portConstraint=eastwest;" vertex="1" parent="2436">
                    <mxGeometry y="160" width="40" height="40" as="geometry"/>
                </mxCell>
                <mxCell id="2483" value="" style="shape=partialRectangle;html=1;whiteSpace=wrap;connectable=0;strokeColor=inherit;overflow=hidden;fillColor=none;top=0;left=0;bottom=0;right=0;pointerEvents=1;" vertex="1" parent="2482">
                    <mxGeometry width="40" height="40" as="geometry">
                        <mxRectangle width="40" height="40" as="alternateBounds"/>
                    </mxGeometry>
                </mxCell>
                <mxCell id="2491" value="" style="shape=tableRow;horizontal=0;startSize=0;swimlaneHead=0;swimlaneBody=0;strokeColor=inherit;top=0;left=0;bottom=0;right=0;collapsible=0;dropTarget=0;fillColor=none;points=[[0,0.5],[1,0.5]];portConstraint=eastwest;" vertex="1" parent="2436">
                    <mxGeometry y="200" width="40" height="40" as="geometry"/>
                </mxCell>
                <mxCell id="2492" value="" style="shape=partialRectangle;html=1;whiteSpace=wrap;connectable=0;strokeColor=inherit;overflow=hidden;fillColor=#666666;top=0;left=0;bottom=0;right=0;pointerEvents=1;" vertex="1" parent="2491">
                    <mxGeometry width="40" height="40" as="geometry">
                        <mxRectangle width="40" height="40" as="alternateBounds"/>
                    </mxGeometry>
                </mxCell>
                <mxCell id="2500" value="" style="shape=tableRow;horizontal=0;startSize=0;swimlaneHead=0;swimlaneBody=0;strokeColor=inherit;top=0;left=0;bottom=0;right=0;collapsible=0;dropTarget=0;fillColor=none;points=[[0,0.5],[1,0.5]];portConstraint=eastwest;" vertex="1" parent="2436">
                    <mxGeometry y="240" width="40" height="40" as="geometry"/>
                </mxCell>
                <mxCell id="2501" value="" style="shape=partialRectangle;html=1;whiteSpace=wrap;connectable=0;strokeColor=inherit;overflow=hidden;fillColor=none;top=0;left=0;bottom=0;right=0;pointerEvents=1;" vertex="1" parent="2500">
                    <mxGeometry width="40" height="40" as="geometry">
                        <mxRectangle width="40" height="40" as="alternateBounds"/>
                    </mxGeometry>
                </mxCell>
                <mxCell id="2437" value="" style="shape=tableRow;horizontal=0;startSize=0;swimlaneHead=0;swimlaneBody=0;strokeColor=inherit;top=0;left=0;bottom=0;right=0;collapsible=0;dropTarget=0;fillColor=none;points=[[0,0.5],[1,0.5]];portConstraint=eastwest;" vertex="1" parent="2436">
                    <mxGeometry y="280" width="40" height="40" as="geometry"/>
                </mxCell>
                <mxCell id="2438" value="" style="shape=partialRectangle;html=1;whiteSpace=wrap;connectable=0;strokeColor=inherit;overflow=hidden;fillColor=none;top=0;left=0;bottom=0;right=0;pointerEvents=1;" vertex="1" parent="2437">
                    <mxGeometry width="40" height="40" as="geometry">
                        <mxRectangle width="40" height="40" as="alternateBounds"/>
                    </mxGeometry>
                </mxCell>
                <mxCell id="1858" value="" style="rounded=0;whiteSpace=wrap;html=1;strokeWidth=4;strokeColor=#FF3333;fillColor=none;" parent="1" vertex="1">
                    <mxGeometry x="1602" y="15281" width="41" height="322" as="geometry"/>
                </mxCell>
                <mxCell id="2509" value="&lt;div style=&quot;text-align: center;&quot;&gt;&lt;b style=&quot;font-size: 33px; background-color: initial;&quot;&gt;&lt;font color=&quot;#ff3333&quot;&gt;Column&lt;/font&gt;&lt;/b&gt;&lt;/div&gt;&lt;div style=&quot;text-align: center;&quot;&gt;&lt;b style=&quot;font-size: 33px; background-color: initial;&quot;&gt;&lt;font color=&quot;#ff3333&quot;&gt;Blocks&lt;/font&gt;&lt;/b&gt;&lt;/div&gt;" style="text;whiteSpace=wrap;html=1;fontSize=35;align=right;" vertex="1" parent="1">
                    <mxGeometry x="54" y="15397" width="122.2" height="95.5" as="geometry"/>
                </mxCell>
                <mxCell id="2510" value="" style="rounded=0;whiteSpace=wrap;html=1;strokeWidth=4;strokeColor=#FF3333;fillColor=none;" vertex="1" parent="1">
                    <mxGeometry x="1531" y="15035" width="41" height="174" as="geometry"/>
                </mxCell>
                <mxCell id="2511" value="" style="rounded=0;whiteSpace=wrap;html=1;strokeWidth=4;strokeColor=#FF3333;fillColor=none;" vertex="1" parent="1">
                    <mxGeometry x="1572" y="15035" width="41" height="174" as="geometry"/>
                </mxCell>
                <mxCell id="2512" value="" style="rounded=0;whiteSpace=wrap;html=1;strokeWidth=4;strokeColor=#FF3333;fillColor=none;" vertex="1" parent="1">
                    <mxGeometry x="1613" y="15035" width="41" height="174" as="geometry"/>
                </mxCell>
                <mxCell id="2513" value="" style="rounded=0;whiteSpace=wrap;html=1;strokeWidth=4;strokeColor=#FF3333;fillColor=none;" vertex="1" parent="1">
                    <mxGeometry x="1654" y="15035" width="41" height="174" as="geometry"/>
                </mxCell>
                <mxCell id="2516" value="PE 1" style="rounded=1;whiteSpace=wrap;html=1;fontSize=35;opacity=50;fillColor=#dae8fc;strokeColor=#6c8ebf;" vertex="1" parent="1">
                    <mxGeometry x="2186.63" y="15508" width="485.37" height="97" as="geometry"/>
                </mxCell>
                <mxCell id="2521" value="&lt;font size=&quot;1&quot; style=&quot;&quot;&gt;&lt;b style=&quot;font-size: 40px;&quot;&gt;Excution Process&lt;/b&gt;&lt;/font&gt;" style="text;html=1;strokeColor=none;fillColor=none;align=center;verticalAlign=middle;whiteSpace=wrap;rounded=0;" vertex="1" parent="1">
                    <mxGeometry x="3530" y="14877" width="454" height="76" as="geometry"/>
                </mxCell>
            </root>
        </mxGraphModel>
    </diagram>
</mxfile>